<svg width="63" height="83" viewBox="0 0 63 83" fill="none" xmlns="http://www.w3.org/2000/svg">
<path fill-rule="evenodd" clip-rule="evenodd" d="M23.1124 75.7378C17.0027 74.2916 12.0996 71.3114 9.60547 67.5499V63.8867C13.9366 67.1927 19.188 69.832 24.162 71.248C23.4871 72.4573 23.1024 73.8505 23.1024 75.3334C23.1024 75.4692 23.1063 75.6039 23.1124 75.7378ZM53.396 63.8867V67.5499C50.9023 71.3118 45.9992 74.2916 39.8891 75.7378C39.8956 75.6039 39.8991 75.4692 39.8991 75.3334C39.8991 73.8505 39.5145 72.4569 38.8399 71.248C43.8135 69.832 49.0649 67.1931 53.396 63.8867Z" fill="#1B1B18"/>
<path fill-rule="evenodd" clip-rule="evenodd" d="M28.1972 74.8951L26.5997 76.4926L30.3148 80.2076L36.4009 74.1215L34.8034 72.524L30.3148 77.0127L28.1972 74.8951ZM37.368 71.6328C38.1416 72.7694 38.5939 74.1416 38.5939 75.6199C38.5939 79.5382 35.4179 82.7142 31.5001 82.7142C27.5819 82.7142 24.4062 79.5382 24.4062 75.6199C24.4062 74.1416 24.8586 72.7694 25.6318 71.6328C27.6867 72.122 29.6724 72.3882 31.5001 72.3882C33.3274 72.3878 35.3135 72.1216 37.368 71.6328Z" fill="#1B1B18"/>
<path d="M41.6951 31.1879C44.1784 31.1879 46.1915 33.2014 46.1915 35.6847C46.1915 38.1676 44.178 40.1815 41.6951 40.1815C39.2118 40.1815 37.1983 38.1676 37.1983 35.6847C37.1983 33.2018 39.2118 31.1879 41.6951 31.1879ZM21.3048 31.1879C23.7881 31.1879 25.8016 33.2014 25.8016 35.6847C25.8016 38.1676 23.7881 40.1815 21.3048 40.1815C18.8219 40.1815 16.808 38.1676 16.808 35.6847C16.8084 33.2018 18.8219 31.1879 21.3048 31.1879ZM31.4999 65.6521C18.0402 65.6521 7.16082 56.5479 13.6947 48.3256C16.7352 44.4995 22.9061 41.5367 25.4893 40.2856C31.5649 37.343 29.8076 29.7863 25.0678 29.7863C24.3925 29.7863 22.0478 29.7805 20.3416 29.7805C15.9295 29.7805 12.4792 29.2723 12.4792 22.2191H14.7187C15.7043 22.2191 16.0483 22.1816 16.0483 23.1932C16.0483 24.0469 16.1207 24.9455 16.8599 25.3781C17.2314 25.5952 17.8505 25.7067 18.7364 25.7136C19.6148 25.7206 23.0605 25.7368 25.5566 25.7368C28.4547 25.7368 30.4508 26.3011 31.5011 28.695C32.551 26.3011 34.5471 25.7368 37.4456 25.7368C39.9416 25.7368 43.387 25.7206 44.2654 25.7136C45.1516 25.7067 45.7704 25.5952 46.1419 25.3781C46.8815 24.9455 46.9534 24.0473 46.9534 23.1932C46.9534 22.1816 47.2975 22.2191 48.2831 22.2191H50.5226C50.5226 29.2723 47.0722 29.7805 42.6598 29.7805C40.9536 29.7805 38.6089 29.7863 37.934 29.7863C33.1938 29.7863 31.4365 37.3426 37.5125 40.2856C40.0953 41.5367 46.2662 44.4995 49.3067 48.3256C55.839 56.5475 44.9593 65.6521 31.4999 65.6521ZM53.7323 8.17773C54.1657 11.5662 54.3669 12.9102 54.615 15.6632C54.7044 16.657 54.8766 17.2773 53.8735 17.0122C51.1488 16.2921 49.8257 15.9415 47.1005 15.2213C45.8885 14.9008 44.9434 14.9442 45.6547 13.9527C47.4774 11.4129 49.3651 9.13011 51.9463 7.21762C53.2304 6.26602 53.5392 6.6681 53.7323 8.17773ZM8.9247 10.8309C9.02222 10.0732 9.13406 9.22298 9.26757 8.17773C9.46068 6.6681 9.76949 6.26603 11.0531 7.21724C13.6343 9.12972 15.522 11.4126 17.3447 13.9523C18.0564 14.9438 17.111 14.9005 15.8994 15.2209C13.1742 15.9411 11.8511 16.2921 9.12632 17.0119C8.12364 17.2769 8.29546 16.657 8.38486 15.6628C8.44832 14.9608 8.50831 14.3506 8.57022 13.7747L8.9247 10.8309ZM40.3259 13.7302C34.4128 13.0077 28.4992 13.0437 22.5861 13.7302C20.5308 10.1707 12.3526 0.285156 8.69135 0.285156C7.13528 0.285156 5.87332 1.54673 5.87332 3.1028L4.84006 10.8313L4.69765 11.8955L4.34859 14.5077L0.103741 46.2518C-1.48638 58.1423 18.8095 70.9156 31.4999 70.9156C44.1904 70.9156 64.4862 58.1427 62.8961 46.2518L57.1265 3.1028C57.1265 1.54673 55.865 0.285156 54.3085 0.285156C50.6476 0.284769 42.3808 10.1707 40.3259 13.7302Z" fill="#1B1B18"/>
<path d="M38.4413 47.1735C39.0945 48.0198 38.9978 49.2864 38.2261 50.0028C32.145 55.6388 30.8672 55.6489 24.7753 50.0028C24.0036 49.2868 23.9069 48.0198 24.5601 47.1735C26.5287 45.0157 36.5528 45.1035 38.4413 47.1735Z" fill="#1B1B18"/>
<path fill-rule="evenodd" clip-rule="evenodd" d="M22.541 33.5616C22.9717 33.5972 23.3993 34.0175 23.496 34.5004C23.5928 34.9834 23.3219 35.3464 22.8912 35.3104C22.4605 35.2748 22.0328 34.8545 21.9361 34.3716C21.8394 33.8886 22.1102 33.526 22.541 33.5616ZM42.9309 33.5616C43.3616 33.5972 43.7892 34.0175 43.886 34.5004C43.9827 34.9834 43.7122 35.3464 43.2811 35.3104C42.8504 35.2748 42.4224 34.8545 42.3256 34.3716C42.2293 33.8886 42.5002 33.526 42.9309 33.5616ZM41.6956 32.3027C43.5632 32.3027 45.0767 33.8166 45.0767 35.6842C45.0767 37.5518 43.5628 39.0653 41.6956 39.0653C39.8284 39.0653 38.3141 37.5514 38.3141 35.6842C38.3141 33.8166 39.828 32.3027 41.6956 32.3027ZM21.3053 32.3027C23.1729 32.3027 24.6868 33.8166 24.6868 35.6842C24.6868 37.5518 23.1729 39.0653 21.3053 39.0653C19.4381 39.0653 17.9238 37.5514 17.9238 35.6842C17.9242 33.8166 19.4381 32.3027 21.3053 32.3027Z" fill="#1B1B18"/>
<path d="M20.1004 57.5402C19.8887 57.1714 20.016 56.7008 20.3844 56.4891C20.7532 56.2775 21.2238 56.4044 21.4355 56.7732C21.7443 57.308 22.2354 57.7279 22.7911 58.0262C23.4424 58.3753 24.1746 58.5529 24.8135 58.5529C26.0785 58.5529 26.7999 58.0514 27.9906 57.6064C31.3532 56.3498 31.52 56.3038 34.8829 57.5603C36.074 58.0054 36.9219 58.5529 38.187 58.5529C38.8259 58.5529 39.558 58.3757 40.2093 58.0262C40.7654 57.7279 41.2565 57.308 41.565 56.7732C41.7766 56.4044 42.2476 56.2775 42.6164 56.4891C42.9848 56.7008 43.1121 57.1718 42.9001 57.5402C42.4357 58.3447 41.7263 58.9604 40.9342 59.3853C40.0511 59.859 39.0561 60.0997 38.187 60.0997C36.6595 60.0997 35.1731 59.544 33.8527 59.0506C31.5412 58.1872 31.4588 58.1872 29.1473 59.0506C27.8269 59.544 26.3409 60.0997 24.8135 60.0997C23.9439 60.0997 22.9494 59.859 22.0663 59.3853C21.2741 58.9604 20.5648 58.3444 20.1004 57.5402Z" fill="#1B1B18"/>
</svg>
