<svg width="327" height="522" fill="none" xmlns="http://www.w3.org/2000/svg"><g filter="url(#a)" shape-rendering="crispEdges"><path d="M136.07 55.103H94.6a1.926 1.926 0 0 1-1.735-1.079l-3.662-7.284a5.781 5.781 0 0 0-5.164-3.199H55.133a5.781 5.781 0 0 0-5.781 5.781v69.375a5.782 5.782 0 0 0 5.78 5.781h80.938a5.782 5.782 0 0 0 5.781-5.781V60.885a5.782 5.782 0 0 0-5.781-5.782Z" fill="#fff" fill-opacity=".3"/><path d="M88.945 46.87a5.492 5.492 0 0 0-4.906-3.04H55.133a5.492 5.492 0 0 0-5.492 5.492v69.375a5.492 5.492 0 0 0 5.492 5.492h80.937a5.492 5.492 0 0 0 5.492-5.492V60.885a5.493 5.493 0 0 0-5.492-5.492H94.6v-.29a1.926 1.926 0 0 1-1.735-1.079l-3.92-7.154Zm0 0 3.66 7.282.001.001-3.66-7.283Z" stroke="#fff" stroke-opacity=".2" stroke-width=".578"/></g><g filter="url(#b)" shape-rendering="crispEdges"><path d="M117.282 41.682h-41.47a1.927 1.927 0 0 1-1.735-1.08l-3.662-7.284a5.78 5.78 0 0 0-5.164-3.199H36.345a5.78 5.78 0 0 0-5.781 5.781v69.375a5.781 5.781 0 0 0 5.78 5.781h80.938a5.784 5.784 0 0 0 5.781-5.781V47.463a5.782 5.782 0 0 0-5.781-5.781Z" fill="#fff" fill-opacity=".3"/><path d="M70.157 33.448a5.492 5.492 0 0 0-4.906-3.04H36.345a5.492 5.492 0 0 0-5.492 5.492v69.375a5.49 5.49 0 0 0 5.492 5.492h80.937a5.492 5.492 0 0 0 5.492-5.492V47.463a5.493 5.493 0 0 0-5.492-5.492h-41.47v-.29a1.927 1.927 0 0 1-1.735-1.079l-3.662-7.284a5.78 5.78 0 0 0-5.164-3.199H36.345a5.78 5.78 0 0 0-5.781 5.781v69.375a5.781 5.781 0 0 0 5.78 5.781h80.938a5.784 5.784 0 0 0 5.781-5.781V47.463a5.782 5.782 0 0 0-5.781-5.781l-47.125-8.234Zm0 0 3.66 7.282-3.66-7.282Z" stroke="#fff" stroke-opacity=".2" stroke-width=".578"/></g><g filter="url(#c)" shape-rendering="crispEdges"><path d="M98.507 23.562h-41.47a1.926 1.926 0 0 1-1.735-1.079L51.641 15.2A5.781 5.781 0 0 0 46.476 12H17.57a5.781 5.781 0 0 0-5.78 5.781v69.375a5.781 5.781 0 0 0 5.78 5.781h80.937a5.78 5.78 0 0 0 5.781-5.781V29.344a5.782 5.782 0 0 0-5.78-5.782Z" fill="#fff" fill-opacity=".59"/><path d="M51.383 15.329a5.492 5.492 0 0 0-4.907-3.04H17.57a5.492 5.492 0 0 0-5.492 5.492v69.375a5.492 5.492 0 0 0 5.492 5.492h80.937A5.492 5.492 0 0 0 104 87.156V29.344a5.491 5.491 0 0 0-5.492-5.492h-41.47v-.29a1.926 1.926 0 0 1-1.735-1.079l-3.92-7.154Zm0 0 3.66 7.281v.002l-3.66-7.283Z" stroke="#fff" stroke-opacity=".2" stroke-width=".578"/></g><path d="M255.062 92.046h.595a.595.595 0 0 0-.595-.595v.595Zm-98.658 0 3.432 3.432 3.432-3.432-3.432-3.432-3.432 3.432Zm98.658 31.324 3.433-3.432-3.433-3.433-3.432 3.433 3.432 3.432Zm.595-3.432v-2.325h-1.189v2.325h1.189Zm0-6.973v-4.649h-1.189v4.649h1.189Zm0-9.298v-4.648h-1.189v4.648h1.189Zm0-9.297v-2.324h-1.189v2.324h1.189Zm-.595-2.919h-2.38v1.19h2.38v-1.19Zm-7.141 0h-4.762v1.19h4.762v-1.19Zm-9.523 0h-4.761v1.19h4.761v-1.19Zm-9.523 0h-4.761v1.19h4.761v-1.19Zm-9.522 0h-4.762v1.19h4.762v-1.19Zm-9.523 0h-4.761v1.19h4.761v-1.19Zm-9.523 0h-4.761v1.19h4.761v-1.19Zm-9.522 0h-4.762v1.19h4.762v-1.19Zm-9.523 0h-4.761v1.19h4.761v-1.19Zm-9.523 0h-4.761v1.19h4.761v-1.19Zm-9.522 0h-2.381v1.19h2.381v-1.19ZM255.063 291.111l-3.433 3.432 3.432 3.432 3.433-3.432-3.432-3.432Zm-.001 29.284 3.433-3.432-3.433-3.432-3.432 3.432 3.432 3.432Zm-.594-25.852v2.802h1.189v-2.802h-1.189Zm0 8.407v5.605h1.189v-5.605h-1.189Zm0 11.21v2.803h1.189v-2.803h-1.189ZM58.04 187.019l-3.433 3.433 3.432 3.432 3.432-3.432-3.432-3.433Zm0 133.376 3.431-3.432-3.432-3.432-3.432 3.432 3.432 3.432Zm.594-3.432v-2.433h-1.19v2.433h1.19Zm0-7.299v-4.866h-1.19v4.866h1.19Zm0-9.731v-4.866h-1.19v4.866h1.19Zm0-9.732v-4.866h-1.19v4.866h1.19Zm0-9.732v-4.866h-1.19v4.866h1.19Zm0-9.731v-4.866h-1.19v4.866h1.19Zm0-9.732v-4.866h-1.19v4.866h1.19Zm0-9.732v-4.865h-1.19v4.865h1.19Zm0-9.731v-4.866h-1.19v4.866h1.19Zm0-9.732v-4.866h-1.19v4.866h1.19Zm0-9.732v-4.865h-1.19v4.865h1.19Zm0-9.731v-4.866h-1.19v4.866h1.19Zm0-9.732v-4.866h-1.19v4.866h1.19Zm0-9.731v-2.433h-1.19v2.433h1.19Z" fill="#FDFCFE"/><rect x="204.273" y="182.584" width="99.166" height="99.166" rx="49.583" fill="#fff" fill-opacity=".1"/><g filter="url(#d)" shape-rendering="crispEdges"><path fill-rule="evenodd" clip-rule="evenodd" d="M253.856 182.584c-27.384 0-49.583 22.199-49.583 49.583 0 27.384 22.199 49.583 49.583 49.583 27.384 0 49.583-22.199 49.583-49.583 0-27.384-22.199-49.583-49.583-49.583Z" fill="#fff" fill-opacity=".3"/><path d="M204.622 232.167c0-27.192 22.043-49.235 49.234-49.235 27.192 0 49.235 22.043 49.235 49.235 0 27.191-22.043 49.234-49.235 49.234-27.191 0-49.234-22.043-49.234-49.234Z" stroke="#fff" stroke-opacity=".5" stroke-width=".697"/></g><g filter="url(#e)"><path fill-rule="evenodd" clip-rule="evenodd" d="M237.035 221.872c0-9.29 7.531-16.821 16.821-16.821 9.29 0 16.821 7.531 16.821 16.821 0 9.29-7.531 16.821-16.821 16.821-9.29 0-16.821-7.531-16.821-16.821Zm42.46 36.055c.874 1.328.596 3.084-.622 4.105a38.8 38.8 0 0 1-25.016 9.092 38.801 38.801 0 0 1-25.017-9.092 3.115 3.115 0 0 1-.622-4.105 30.697 30.697 0 0 1 25.639-13.821 30.692 30.692 0 0 1 25.638 13.821Z" fill="#fff" fill-opacity=".5" shape-rendering="crispEdges"/></g><rect x="205.202" y="183.512" width="97.309" height="97.309" rx="48.654" stroke="#fff" stroke-opacity=".2" stroke-width="1.857"/><g filter="url(#f)"><rect x="153.312" y="257.494" width="85.961" height="31.088" rx="15.544" fill="#fff" fill-opacity=".1" shape-rendering="crispEdges"/><path d="m160.421 278.537 3.339-10.272h2.147l3.338 10.272h-1.548l-3.074-9.374h.385l-3.039 9.374h-1.548Zm1.734-2.318v-1.399h5.364v1.399h-5.364Zm11.772 2.532c-.718 0-1.339-.178-1.862-.535a3.544 3.544 0 0 1-1.206-1.455c-.28-.618-.421-1.313-.421-2.083 0-.775.143-1.467.428-2.076a3.463 3.463 0 0 1 1.213-1.448c.528-.357 1.153-.535 1.876-.535.728 0 1.339.178 1.834.535.499.352.875.834 1.127 1.448.257.613.385 1.305.385 2.076 0 .77-.128 1.462-.385 2.076a3.365 3.365 0 0 1-1.134 1.462c-.5.357-1.118.535-1.855.535Zm.207-1.348c.49 0 .889-.117 1.198-.35.309-.233.535-.554.678-.963.143-.409.214-.88.214-1.412 0-.533-.074-1.004-.221-1.413-.143-.409-.366-.727-.671-.956-.299-.228-.682-.342-1.148-.342-.495 0-.902.121-1.22.364a2.17 2.17 0 0 0-.714.977 3.91 3.91 0 0 0-.228 1.37c0 .509.076.97.228 1.384.157.409.39.734.7.977.313.243.708.364 1.184.364Zm2.09 1.134v-5.543h-.171v-4.729h1.498v10.272h-1.327Zm12.895 0 .007-4.801c0-.556-.143-.989-.428-1.298-.285-.314-.661-.471-1.127-.471-.285 0-.547.067-.785.2a1.47 1.47 0 0 0-.571.585c-.142.257-.214.58-.214.97l-.72-.364c-.01-.542.105-1.018.342-1.427.243-.409.571-.725.985-.948a2.823 2.823 0 0 1 1.391-.343c.832 0 1.477.25 1.933.749.457.5.685 1.163.685 1.99l-.007 5.158h-1.491Zm-9.238 0v-7.704h1.327v2.225h.171v5.479h-1.498Zm4.622 0 .008-4.772c0-.561-.143-1.001-.428-1.32-.281-.319-.659-.478-1.135-.478-.471 0-.851.162-1.141.485-.285.323-.428.747-.428 1.27l-.714-.457c0-.504.122-.953.364-1.348.243-.395.571-.706.985-.934a2.852 2.852 0 0 1 1.405-.343c.547 0 1.013.117 1.398.35.386.228.678.549.878.963.204.413.306.894.306 1.441l-.007 5.143h-1.491Zm8.45-8.967v-1.448h1.491v1.448h-1.491Zm0 8.967v-7.704h1.491v7.704h-1.491Zm9.382 0v-3.788c0-.299-.026-.606-.079-.92a2.735 2.735 0 0 0-.285-.885 1.67 1.67 0 0 0-.592-.656c-.252-.166-.583-.25-.992-.25a2.12 2.12 0 0 0-.756.136 1.567 1.567 0 0 0-.627.421 2.116 2.116 0 0 0-.421.77c-.1.319-.15.706-.15 1.163l-.928-.35c0-.699.131-1.315.393-1.847a2.943 2.943 0 0 1 1.127-1.256c.49-.299 1.082-.449 1.776-.449.533 0 .98.085 1.341.257.362.171.654.397.878.677.228.276.402.578.521.906.118.329.199.65.242.963.043.314.064.59.064.828v4.28h-1.512Zm-5.414 0v-7.704h1.334v2.225h.178v5.479h-1.512Z" fill="#FDFDFC"/><mask id="g" style="mask-type:alpha" maskUnits="userSpaceOnUse" x="216" y="264" width="17" height="18"><path fill="#D9D9D9" d="M216.068 264.848h16.379v16.379h-16.379z"/></mask><g mask="url(#g)"><path d="m220.436 277.814-.956-.955 3.822-3.822-3.822-3.822.956-.955 3.822 3.822 3.821-3.822.956.955-3.822 3.822 3.822 3.822-.956.955-3.821-3.822-3.822 3.822Z" fill="#FDFDFC"/></g><rect x="153.708" y="257.89" width="85.168" height="30.295" rx="15.148" stroke="#fff" stroke-opacity=".2" stroke-width=".793" shape-rendering="crispEdges"/></g><path d="M206.02 171.818c8.836 0 16-7.163 16-16 0-8.836-7.164-16-16-16-8.837 0-16 7.164-16 16 0 8.837 7.163 16 16 16Z" fill="#974EF2"/><mask id="h" style="mask-type:alpha" maskUnits="userSpaceOnUse" x="196" y="146" width="20" height="20"><path fill="#D9D9D9" d="M196.679 146.479h18.681v18.681h-18.681z"/></mask><g mask="url(#h)"><path d="m204.112 160.84-4.787-4.787 1.479-1.479 3.308 3.327 7.122-7.141 1.479 1.479-8.601 8.601Z" fill="#fff"/></g><path d="m232.3 149.818 3.178-10.08h2.471l3.178 10.08h-1.736l-2.884-9.044h.378l-2.849 9.044H232.3Zm1.771-2.184v-1.575h5.292v1.575h-5.292Zm11.24 2.394c-.933 0-1.692-.21-2.275-.63-.583-.42-.938-1.01-1.064-1.771l1.722-.266c.089.374.285.668.588.882.303.215.686.322 1.148.322.406 0 .719-.079.938-.238a.78.78 0 0 0 .336-.665.634.634 0 0 0-.126-.413c-.079-.107-.257-.21-.532-.308a17.26 17.26 0 0 0-1.267-.371c-.635-.168-1.139-.347-1.512-.539-.373-.196-.642-.427-.805-.693-.163-.266-.245-.588-.245-.966 0-.471.124-.882.371-1.232s.593-.618 1.036-.805c.443-.191.966-.287 1.568-.287.588 0 1.108.091 1.561.273.457.182.826.441 1.106.777.28.336.453.731.518 1.183l-1.722.308a1.085 1.085 0 0 0-.441-.763c-.247-.186-.579-.291-.994-.315-.397-.023-.716.038-.959.182-.243.14-.364.339-.364.595 0 .145.049.269.147.371.098.103.294.206.588.308.299.103.742.229 1.33.378.602.154 1.083.332 1.442.532.364.196.625.432.784.707.163.276.245.609.245 1.001 0 .761-.278 1.358-.833 1.792-.551.434-1.314.651-2.289.651Zm7.574 0c-.933 0-1.691-.21-2.275-.63-.583-.42-.938-1.01-1.064-1.771l1.722-.266c.089.374.285.668.588.882.304.215.686.322 1.148.322.406 0 .719-.079.938-.238a.78.78 0 0 0 .336-.665.634.634 0 0 0-.126-.413c-.079-.107-.256-.21-.532-.308a17.11 17.11 0 0 0-1.267-.371c-.634-.168-1.138-.347-1.512-.539-.373-.196-.641-.427-.805-.693-.163-.266-.245-.588-.245-.966 0-.471.124-.882.371-1.232.248-.35.593-.618 1.036-.805.444-.191.966-.287 1.568-.287.588 0 1.109.091 1.561.273.458.182.826.441 1.106.777.28.336.453.731.518 1.183l-1.722.308a1.085 1.085 0 0 0-.441-.763c-.247-.186-.578-.291-.994-.315-.396-.023-.716.038-.959.182-.242.14-.364.339-.364.595 0 .145.049.269.147.371.098.103.294.206.588.308.299.103.742.229 1.33.378.602.154 1.083.332 1.442.532.364.196.626.432.784.707.164.276.245.609.245 1.001 0 .761-.277 1.358-.833 1.792-.55.434-1.313.651-2.289.651Zm4.796-8.918v-1.547h1.687v1.547h-1.687Zm0 8.708v-7.56h1.687v7.56h-1.687Zm6.961 3.57c-.42 0-.823-.065-1.211-.196a3.37 3.37 0 0 1-1.036-.567 2.974 2.974 0 0 1-.756-.882l1.554-.77c.145.276.348.479.609.609.266.136.549.203.847.203.35 0 .663-.063.938-.189.276-.121.488-.303.637-.546.154-.238.227-.536.217-.896v-2.149h.21v-5.747h1.477v7.924c0 .192-.009.374-.028.546a3.63 3.63 0 0 1-.077.518c-.112.49-.326.892-.644 1.204a2.913 2.913 0 0 1-1.183.707 4.933 4.933 0 0 1-1.554.231Zm-.147-3.36c-.695 0-1.302-.175-1.82-.525a3.478 3.478 0 0 1-1.204-1.428c-.284-.602-.427-1.281-.427-2.037 0-.765.143-1.446.427-2.044a3.449 3.449 0 0 1 1.225-1.421c.528-.35 1.148-.525 1.862-.525.719 0 1.321.175 1.806.525.49.346.861.819 1.113 1.421.252.602.378 1.284.378 2.044 0 .752-.126 1.431-.378 2.037a3.21 3.21 0 0 1-1.127 1.428c-.499.35-1.117.525-1.855.525Zm.259-1.512c.453 0 .817-.102 1.092-.308.28-.21.483-.501.609-.875.131-.373.196-.805.196-1.295 0-.494-.065-.926-.196-1.295-.126-.373-.324-.662-.595-.868-.27-.21-.62-.315-1.05-.315-.452 0-.826.112-1.12.336a1.92 1.92 0 0 0-.651.896 3.53 3.53 0 0 0-.21 1.246c0 .462.068.882.203 1.26.14.374.353.67.637.889.285.22.647.329 1.085.329Zm10.566 1.302v-3.64c0-.238-.016-.501-.049-.791a2.7 2.7 0 0 0-.231-.833 1.58 1.58 0 0 0-.532-.665c-.233-.172-.55-.259-.952-.259-.214 0-.427.035-.637.105-.21.07-.401.192-.574.364-.168.168-.303.402-.406.7-.102.294-.154.672-.154 1.134l-1.001-.427c0-.644.124-1.227.371-1.75a2.984 2.984 0 0 1 1.106-1.246c.486-.312 1.083-.469 1.792-.469.56 0 1.022.094 1.386.28.364.187.654.425.868.714a3.1 3.1 0 0 1 .476.924c.103.327.168.637.196.931.033.29.049.525.049.707v4.221h-1.708Zm-5.243 0v-7.56h1.505v2.345h.203v5.215h-1.708Zm11.581 0v-7.56h1.491v1.841l-.182-.238c.093-.252.217-.48.371-.686.158-.21.347-.382.567-.518.186-.126.392-.224.616-.294.228-.074.462-.119.7-.133.238-.018.469-.009.693.028v1.575a2.18 2.18 0 0 0-.777-.063c-.29.024-.551.105-.784.245a1.752 1.752 0 0 0-.574.483c-.145.196-.252.42-.322.672-.07.248-.105.516-.105.805v3.843h-1.694Zm8.794.21c-.756 0-1.417-.17-1.981-.511a3.495 3.495 0 0 1-1.316-1.407c-.308-.602-.462-1.292-.462-2.072 0-.793.158-1.488.476-2.086a3.507 3.507 0 0 1 1.323-1.4c.564-.336 1.218-.504 1.96-.504.76 0 1.423.171 1.988.511a3.508 3.508 0 0 1 1.316 1.414c.312.598.469 1.286.469 2.065 0 .784-.159 1.477-.476 2.079a3.508 3.508 0 0 1-1.316 1.407c-.565.336-1.225.504-1.981.504Zm0-1.582c.672 0 1.171-.224 1.498-.672.326-.448.49-1.026.49-1.736 0-.732-.166-1.316-.497-1.75-.332-.438-.829-.658-1.491-.658-.453 0-.826.103-1.12.308a1.77 1.77 0 0 0-.644.847c-.14.36-.21.777-.21 1.253 0 .733.165 1.319.497 1.757.336.434.828.651 1.477.651Zm5.455 1.372v-10.29h1.687v10.29h-1.687Zm7.221.21c-.765 0-1.437-.165-2.016-.497a3.537 3.537 0 0 1-1.358-1.379c-.322-.588-.483-1.264-.483-2.03 0-.826.159-1.542.476-2.149a3.475 3.475 0 0 1 1.323-1.421c.565-.336 1.218-.504 1.96-.504.784 0 1.449.185 1.995.553.551.364.959.88 1.225 1.547.266.668.366 1.454.301 2.359h-1.673v-.616c-.005-.821-.149-1.421-.434-1.799-.285-.378-.733-.567-1.344-.567-.691 0-1.204.215-1.54.644-.336.425-.504 1.048-.504 1.869 0 .766.168 1.358.504 1.778.336.42.826.63 1.47.63.415 0 .772-.091 1.071-.273.303-.186.537-.455.7-.805l1.666.504a3.37 3.37 0 0 1-1.344 1.589 3.677 3.677 0 0 1-1.995.567Zm-2.604-3.521v-1.274h5.201v1.274h-5.201Zm10.508 3.521c-.934 0-1.692-.21-2.275-.63-.584-.42-.938-1.01-1.064-1.771l1.722-.266c.088.374.284.668.588.882.303.215.686.322 1.148.322.406 0 .718-.079.938-.238a.78.78 0 0 0 .336-.665.634.634 0 0 0-.126-.413c-.08-.107-.257-.21-.532-.308a17.413 17.413 0 0 0-1.267-.371c-.635-.168-1.139-.347-1.512-.539-.374-.196-.642-.427-.805-.693-.164-.266-.245-.588-.245-.966 0-.471.123-.882.371-1.232.247-.35.592-.618 1.036-.805.443-.191.966-.287 1.568-.287.588 0 1.108.091 1.561.273.457.182.826.441 1.106.777.28.336.452.731.518 1.183l-1.722.308a1.085 1.085 0 0 0-.441-.763c-.248-.186-.579-.291-.994-.315-.397-.023-.717.038-.959.182-.243.14-.364.339-.364.595 0 .145.049.269.147.371.098.103.294.206.588.308.298.103.742.229 1.33.378.602.154 1.082.332 1.442.532.364.196.625.432.784.707.163.276.245.609.245 1.001 0 .761-.278 1.358-.833 1.792-.551.434-1.314.651-2.289.651Zm-73.601 21.79c-.5.094-.99.133-1.47.119a3.35 3.35 0 0 1-1.281-.259 1.772 1.772 0 0 1-.861-.791 2.242 2.242 0 0 1-.273-1.001c-.01-.34-.014-.725-.014-1.155v-6.573h1.68v6.475c0 .304.002.57.007.798.009.229.058.416.147.56.168.28.436.437.805.469.368.033.788.014 1.26-.056v1.414Zm-5.271-6.237v-1.323h5.271v1.323h-5.271Zm9.852 6.447c-.756 0-1.416-.17-1.981-.511a3.508 3.508 0 0 1-1.316-1.407c-.308-.602-.462-1.292-.462-2.072 0-.793.159-1.488.476-2.086a3.521 3.521 0 0 1 1.323-1.4c.565-.336 1.218-.504 1.96-.504.761 0 1.424.171 1.988.511a3.494 3.494 0 0 1 1.316 1.414c.313.598.469 1.286.469 2.065 0 .784-.158 1.477-.476 2.079a3.495 3.495 0 0 1-1.316 1.407c-.564.336-1.225.504-1.981.504Zm0-1.582c.672 0 1.172-.224 1.498-.672.327-.448.49-1.026.49-1.736 0-.732-.165-1.316-.497-1.75-.331-.438-.828-.658-1.491-.658-.452 0-.826.103-1.12.308a1.776 1.776 0 0 0-.644.847c-.14.36-.21.777-.21 1.253 0 .733.166 1.319.497 1.757.336.434.829.651 1.477.651Zm10.953 1.589c-.56 0-1.022-.093-1.386-.28a2.437 2.437 0 0 1-.868-.714 3.124 3.124 0 0 1-.476-.924 5.003 5.003 0 0 1-.203-.924 7.869 7.869 0 0 1-.042-.714v-4.221h1.708v3.64c0 .234.017.497.049.791.033.29.108.57.224.84.122.266.299.486.532.658.238.173.558.259.959.259.215 0 .427-.035.637-.105.21-.07.399-.189.567-.357.173-.172.311-.408.413-.707.103-.298.154-.676.154-1.134l1.001.427c0 .644-.126 1.228-.378 1.75a2.964 2.964 0 0 1-1.099 1.253c-.485.308-1.082.462-1.792.462Zm2.471-.217v-2.345h-.203v-5.215h1.694v7.56h-1.491Zm6.377.21c-.933 0-1.692-.21-2.275-.63-.583-.42-.938-1.01-1.064-1.771l1.722-.266c.089.374.285.668.588.882.303.215.686.322 1.148.322.406 0 .719-.079.938-.238a.78.78 0 0 0 .336-.665.634.634 0 0 0-.126-.413c-.079-.107-.257-.21-.532-.308a17.26 17.26 0 0 0-1.267-.371c-.635-.168-1.139-.347-1.512-.539-.373-.196-.642-.427-.805-.693-.163-.266-.245-.588-.245-.966 0-.471.124-.882.371-1.232s.593-.618 1.036-.805c.443-.191.966-.287 1.568-.287.588 0 1.108.091 1.561.273.457.182.826.441 1.106.777.28.336.453.731.518 1.183l-1.722.308a1.085 1.085 0 0 0-.441-.763c-.247-.186-.579-.291-.994-.315-.397-.023-.716.038-.959.182-.243.14-.364.339-.364.595 0 .145.049.269.147.371.098.103.294.206.588.308.299.103.742.229 1.33.378.602.154 1.083.332 1.442.532.364.196.625.432.784.707.163.276.245.609.245 1.001 0 .761-.278 1.358-.833 1.792-.551.434-1.314.651-2.289.651Zm8.092 0c-.765 0-1.437-.165-2.016-.497a3.544 3.544 0 0 1-1.358-1.379c-.322-.588-.483-1.264-.483-2.03 0-.826.159-1.542.476-2.149a3.488 3.488 0 0 1 1.323-1.421c.565-.336 1.218-.504 1.96-.504.784 0 1.449.185 1.995.553.551.364.959.88 1.225 1.547.266.668.367 1.454.301 2.359h-1.673v-.616c-.004-.821-.149-1.421-.434-1.799-.284-.378-.732-.567-1.344-.567-.69 0-1.204.215-1.54.644-.336.425-.504 1.048-.504 1.869 0 .766.168 1.358.504 1.778.336.42.826.63 1.47.63.416 0 .773-.091 1.071-.273.304-.186.537-.455.7-.805l1.666.504a3.37 3.37 0 0 1-1.344 1.589 3.677 3.677 0 0 1-1.995.567Zm-2.604-3.521v-1.274h5.201v1.274h-5.201Zm7.589 3.311v-7.56h1.491v1.841l-.182-.238c.093-.252.217-.48.371-.686.159-.21.348-.382.567-.518.187-.126.392-.224.616-.294.229-.074.462-.119.7-.133.238-.018.469-.009.693.028v1.575a2.18 2.18 0 0 0-.777-.063 1.788 1.788 0 0 0-.784.245 1.762 1.762 0 0 0-.574.483c-.145.196-.252.42-.322.672-.07.248-.105.516-.105.805v3.843h-1.694Zm8.238.21c-.934 0-1.692-.21-2.275-.63-.584-.42-.938-1.01-1.064-1.771l1.722-.266c.088.374.284.668.588.882.303.215.686.322 1.148.322.406 0 .718-.079.938-.238a.78.78 0 0 0 .336-.665.634.634 0 0 0-.126-.413c-.08-.107-.257-.21-.532-.308a17.413 17.413 0 0 0-1.267-.371c-.635-.168-1.139-.347-1.512-.539-.374-.196-.642-.427-.805-.693-.164-.266-.245-.588-.245-.966 0-.471.123-.882.371-1.232.247-.35.592-.618 1.036-.805.443-.191.966-.287 1.568-.287.588 0 1.108.091 1.561.273.457.182.826.441 1.106.777.28.336.452.731.518 1.183l-1.722.308a1.085 1.085 0 0 0-.441-.763c-.248-.186-.579-.291-.994-.315-.397-.023-.717.038-.959.182-.243.14-.364.339-.364.595 0 .145.049.269.147.371.098.103.294.206.588.308.298.103.742.229 1.33.378.602.154 1.082.332 1.442.532.364.196.625.432.784.707.163.276.245.609.245 1.001 0 .761-.278 1.358-.833 1.792-.551.434-1.314.651-2.289.651Z" fill="#EDEDEC"/><path d="M173.664 72.166c8.837 0 16-7.163 16-16 0-8.836-7.163-16-16-16-8.836 0-16 7.164-16 16 0 8.837 7.164 16 16 16Z" fill="#974EF2"/><mask id="i" style="mask-type:alpha" maskUnits="userSpaceOnUse" x="164" y="46" width="20" height="20"><path fill="#D9D9D9" d="M164.323 46.826h18.681v18.681h-18.681z"/></mask><g mask="url(#i)"><path d="M171.757 61.187 166.97 56.4l1.479-1.478 3.308 3.327 7.122-7.142 1.479 1.48-8.601 8.6Z" fill="#fff"/></g><path d="M200.644 50.166v-10.08h1.519l3.486 7.14 3.486-7.14h1.519v10.08h-1.575v-6.461l-3.094 6.461h-.672l-3.087-6.461v6.461h-1.582Zm14.091.21c-.546 0-1.008-.103-1.386-.308a2.179 2.179 0 0 1-.861-.833 2.308 2.308 0 0 1-.287-1.141c0-.364.06-.69.182-.98a1.93 1.93 0 0 1 .56-.756c.252-.215.578-.39.98-.525a9.266 9.266 0 0 1 1.064-.266c.41-.08.854-.152 1.33-.217.48-.07.982-.145 1.505-.224l-.602.343c.004-.523-.112-.908-.35-1.155s-.64-.371-1.204-.371c-.341 0-.67.08-.987.238-.318.159-.539.432-.665.819l-1.54-.483a2.856 2.856 0 0 1 1.064-1.54c.527-.387 1.236-.581 2.128-.581.672 0 1.262.11 1.771.329.513.22.893.579 1.141 1.078.135.266.217.539.245.819.028.275.042.576.042.903v4.641h-1.477v-1.638l.245.266c-.341.546-.74.947-1.197 1.204-.453.252-1.02.378-1.701.378Zm.336-1.344c.382 0 .709-.068.98-.203.27-.135.485-.301.644-.497.163-.196.273-.38.329-.553.088-.215.137-.46.147-.735.014-.28.021-.506.021-.679l.518.154c-.509.08-.945.15-1.309.21s-.677.119-.938.175c-.262.051-.493.11-.693.175a2.14 2.14 0 0 0-.497.245c-.136.093-.241.2-.315.322a.84.84 0 0 0-.105.427c0 .187.046.352.14.497.093.14.228.252.406.336a1.6 1.6 0 0 0 .672.126Zm10.845 1.134v-3.64c0-.238-.016-.502-.049-.791a2.753 2.753 0 0 0-.231-.833 1.582 1.582 0 0 0-.532-.665c-.233-.173-.551-.259-.952-.259-.215 0-.427.035-.637.105-.21.07-.401.191-.574.364-.168.168-.303.401-.406.7-.103.294-.154.672-.154 1.134l-1.001-.427c0-.644.124-1.227.371-1.75a2.98 2.98 0 0 1 1.106-1.246c.485-.313 1.083-.469 1.792-.469.56 0 1.022.093 1.386.28.364.187.653.425.868.714.215.29.373.597.476.924.103.327.168.637.196.931.033.29.049.525.049.707v4.221h-1.708Zm-5.243 0v-7.56h1.505v2.345h.203v5.215h-1.708Zm10.892.21c-.546 0-1.008-.103-1.386-.308a2.179 2.179 0 0 1-.861-.833 2.308 2.308 0 0 1-.287-1.141c0-.364.06-.69.182-.98a1.93 1.93 0 0 1 .56-.756c.252-.215.578-.39.98-.525a9.266 9.266 0 0 1 1.064-.266c.41-.08.854-.152 1.33-.217.48-.07.982-.145 1.505-.224l-.602.343c.004-.523-.112-.908-.35-1.155s-.64-.371-1.204-.371c-.341 0-.67.08-.987.238-.318.159-.539.432-.665.819l-1.54-.483a2.856 2.856 0 0 1 1.064-1.54c.527-.387 1.236-.581 2.128-.581.672 0 1.262.11 1.771.329.513.22.893.579 1.141 1.078.135.266.217.539.245.819.028.275.042.576.042.903v4.641h-1.477v-1.638l.245.266c-.341.546-.74.947-1.197 1.204-.453.252-1.02.378-1.701.378Zm.336-1.344c.382 0 .709-.068.98-.203.27-.135.485-.301.644-.497.163-.196.273-.38.329-.553.088-.215.137-.46.147-.735.014-.28.021-.506.021-.679l.518.154c-.509.08-.945.15-1.309.21s-.677.119-.938.175c-.262.051-.493.11-.693.175a2.14 2.14 0 0 0-.497.245c-.136.093-.241.2-.315.322a.84.84 0 0 0-.105.427c0 .187.046.352.14.497.093.14.228.252.406.336a1.6 1.6 0 0 0 .672.126Zm8.794 4.704a3.76 3.76 0 0 1-1.211-.196 3.388 3.388 0 0 1-1.036-.567 2.992 2.992 0 0 1-.756-.882l1.554-.77c.145.275.348.478.609.609.266.135.548.203.847.203.35 0 .663-.063.938-.189a1.38 1.38 0 0 0 .637-.546c.154-.238.226-.537.217-.896v-2.149h.21v-5.747h1.477v7.924a5 5 0 0 1-.028.546c-.014.177-.04.35-.077.518-.112.49-.327.891-.644 1.204a2.928 2.928 0 0 1-1.183.707 4.942 4.942 0 0 1-1.554.231Zm-.147-3.36c-.695 0-1.302-.175-1.82-.525a3.478 3.478 0 0 1-1.204-1.428c-.285-.602-.427-1.281-.427-2.037 0-.765.142-1.447.427-2.044a3.437 3.437 0 0 1 1.225-1.421c.527-.35 1.148-.525 1.862-.525.719 0 1.321.175 1.806.525.49.345.861.819 1.113 1.421.252.602.378 1.283.378 2.044 0 .751-.126 1.43-.378 2.037a3.216 3.216 0 0 1-1.127 1.428c-.499.35-1.118.525-1.855.525Zm.259-1.512c.453 0 .817-.103 1.092-.308.28-.21.483-.502.609-.875.131-.373.196-.805.196-1.295 0-.495-.065-.926-.196-1.295-.126-.373-.324-.663-.595-.868-.271-.21-.621-.315-1.05-.315-.453 0-.826.112-1.12.336-.294.22-.511.518-.651.896-.14.373-.21.789-.21 1.246 0 .462.068.882.203 1.26.14.373.352.67.637.889.285.22.646.329 1.085.329Zm8.774 1.512c-.765 0-1.437-.166-2.016-.497a3.539 3.539 0 0 1-1.358-1.379c-.322-.588-.483-1.265-.483-2.03 0-.826.159-1.542.476-2.149a3.473 3.473 0 0 1 1.323-1.421c.565-.336 1.218-.504 1.96-.504.784 0 1.449.184 1.995.553.551.364.959.88 1.225 1.547.266.667.366 1.454.301 2.359h-1.673v-.616c-.005-.821-.149-1.421-.434-1.799-.285-.378-.733-.567-1.344-.567-.691 0-1.204.215-1.54.644-.336.425-.504 1.048-.504 1.869 0 .765.168 1.358.504 1.778.336.42.826.63 1.47.63.415 0 .772-.091 1.071-.273.303-.187.537-.455.7-.805l1.666.504a3.373 3.373 0 0 1-1.344 1.589 3.677 3.677 0 0 1-1.995.567Zm-2.604-3.521v-1.274h5.201v1.274h-5.201Zm10.392 3.311v-7.56h1.491v1.841l-.182-.238c.093-.252.217-.48.371-.686.158-.21.347-.383.567-.518.186-.126.392-.224.616-.294.228-.075.462-.119.7-.133.238-.019.469-.01.693.028v1.575a2.166 2.166 0 0 0-.777-.063c-.29.023-.551.105-.784.245a1.752 1.752 0 0 0-.574.483c-.145.196-.252.42-.322.672-.07.247-.105.516-.105.805v3.843h-1.694Zm8.892.21c-.766 0-1.438-.166-2.016-.497a3.532 3.532 0 0 1-1.358-1.379c-.322-.588-.483-1.265-.483-2.03 0-.826.158-1.542.476-2.149a3.473 3.473 0 0 1 1.323-1.421c.564-.336 1.218-.504 1.96-.504.784 0 1.449.184 1.995.553.55.364.959.88 1.225 1.547.266.667.366 1.454.301 2.359h-1.673v-.616c-.005-.821-.15-1.421-.434-1.799-.285-.378-.733-.567-1.344-.567-.691 0-1.204.215-1.54.644-.336.425-.504 1.048-.504 1.869 0 .765.168 1.358.504 1.778.336.42.826.63 1.47.63.415 0 .772-.091 1.071-.273.303-.187.536-.455.7-.805l1.666.504a3.384 3.384 0 0 1-1.344 1.589 3.677 3.677 0 0 1-1.995.567Zm-2.604-3.521v-1.274h5.201v1.274h-5.201Zm10.508 3.521c-.934 0-1.692-.21-2.275-.63-.584-.42-.938-1.01-1.064-1.771l1.722-.266c.088.373.284.667.588.882.303.215.686.322 1.148.322.406 0 .718-.08.938-.238a.78.78 0 0 0 .336-.665.632.632 0 0 0-.126-.413c-.08-.107-.257-.21-.532-.308a17.06 17.06 0 0 0-1.267-.371c-.635-.168-1.139-.348-1.512-.539-.374-.196-.642-.427-.805-.693-.164-.266-.245-.588-.245-.966 0-.471.123-.882.371-1.232.247-.35.592-.618 1.036-.805.443-.191.966-.287 1.568-.287.588 0 1.108.091 1.561.273.457.182.826.441 1.106.777.28.336.452.73.518 1.183l-1.722.308a1.084 1.084 0 0 0-.441-.763c-.248-.187-.579-.292-.994-.315-.397-.023-.717.037-.959.182-.243.14-.364.338-.364.595 0 .145.049.268.147.371.098.103.294.205.588.308.298.103.742.229 1.33.378.602.154 1.082.331 1.442.532.364.196.625.432.784.707.163.275.245.609.245 1.001 0 .76-.278 1.358-.833 1.792-.551.434-1.314.651-2.289.651Zm7.994 0c-.756 0-1.416-.17-1.981-.511a3.51 3.51 0 0 1-1.316-1.407c-.308-.602-.462-1.293-.462-2.072 0-.793.159-1.489.476-2.086a3.505 3.505 0 0 1 1.323-1.4c.565-.336 1.218-.504 1.96-.504.761 0 1.423.17 1.988.511.565.34 1.003.812 1.316 1.414.313.597.469 1.286.469 2.065 0 .784-.159 1.477-.476 2.079a3.51 3.51 0 0 1-1.316 1.407c-.565.336-1.225.504-1.981.504Zm0-1.582c.672 0 1.171-.224 1.498-.672.327-.448.49-1.027.49-1.736 0-.733-.166-1.316-.497-1.75-.331-.439-.828-.658-1.491-.658-.453 0-.826.103-1.12.308-.289.2-.504.483-.644.847-.14.36-.21.777-.21 1.253 0 .733.166 1.318.497 1.757.336.434.828.651 1.477.651Zm8.15 1.589c-.56 0-1.022-.093-1.386-.28a2.451 2.451 0 0 1-.868-.714 3.107 3.107 0 0 1-.476-.924 4.947 4.947 0 0 1-.203-.924 7.869 7.869 0 0 1-.042-.714v-4.221h1.708v3.64c0 .233.016.497.049.791.033.29.107.57.224.84.121.266.299.485.532.658.238.173.558.259.959.259.215 0 .427-.035.637-.105.21-.07.399-.189.567-.357.173-.173.31-.408.413-.707.103-.299.154-.677.154-1.134l1.001.427c0 .644-.126 1.227-.378 1.75-.247.523-.614.94-1.099 1.253-.485.308-1.083.462-1.792.462Zm2.471-.217v-2.345h-.203v-5.215h1.694v7.56h-1.491Zm3.458 0v-7.56h1.491v1.841l-.182-.238c.093-.252.217-.48.371-.686.158-.21.347-.383.567-.518.186-.126.392-.224.616-.294.228-.075.462-.119.7-.133.238-.019.469-.01.693.028v1.575a2.166 2.166 0 0 0-.777-.063c-.29.023-.551.105-.784.245a1.752 1.752 0 0 0-.574.483c-.145.196-.252.42-.322.672-.07.247-.105.516-.105.805v3.843h-1.694Zm8.738.21c-.779 0-1.444-.173-1.995-.518a3.447 3.447 0 0 1-1.267-1.428c-.289-.602-.436-1.283-.441-2.044.005-.775.156-1.46.455-2.058a3.434 3.434 0 0 1 1.288-1.414c.555-.345 1.216-.518 1.981-.518.859 0 1.584.217 2.177.651.597.43.987 1.017 1.169 1.764l-1.68.455c-.131-.406-.348-.721-.651-.945a1.676 1.676 0 0 0-1.036-.343c-.439 0-.8.105-1.085.315-.285.205-.495.49-.63.854a3.546 3.546 0 0 0-.203 1.239c0 .719.161 1.3.483 1.743.322.443.8.665 1.435.665.448 0 .8-.103 1.057-.308.261-.205.457-.502.588-.889l1.722.385c-.233.77-.642 1.363-1.225 1.778-.583.41-1.297.616-2.142.616Zm8.002 0c-.766 0-1.438-.166-2.016-.497a3.532 3.532 0 0 1-1.358-1.379c-.322-.588-.483-1.265-.483-2.03 0-.826.158-1.542.476-2.149a3.473 3.473 0 0 1 1.323-1.421c.564-.336 1.218-.504 1.96-.504.784 0 1.449.184 1.995.553.55.364.959.88 1.225 1.547.266.667.366 1.454.301 2.359h-1.673v-.616c-.005-.821-.15-1.421-.434-1.799-.285-.378-.733-.567-1.344-.567-.691 0-1.204.215-1.54.644-.336.425-.504 1.048-.504 1.869 0 .765.168 1.358.504 1.778.336.42.826.63 1.47.63.415 0 .772-.091 1.071-.273.303-.187.536-.455.7-.805l1.666.504a3.384 3.384 0 0 1-1.344 1.589 3.677 3.677 0 0 1-1.995.567Zm-2.604-3.521v-1.274h5.201v1.274h-5.201ZM204.277 72.376c-.737 0-1.356-.175-1.855-.525a3.216 3.216 0 0 1-1.127-1.428c-.252-.607-.378-1.286-.378-2.037 0-.76.126-1.442.378-2.044.252-.602.621-1.076 1.106-1.421.49-.35 1.094-.525 1.813-.525.714 0 1.332.175 1.855.525.527.345.936.819 1.225 1.421.289.597.434 1.279.434 2.044 0 .756-.142 1.435-.427 2.037a3.478 3.478 0 0 1-1.204 1.428c-.518.35-1.125.525-1.82.525Zm-3.647 3.15v-10.92h1.491v5.306h.21v5.614h-1.701Zm3.388-4.662c.439 0 .8-.11 1.085-.329a1.91 1.91 0 0 0 .63-.889c.14-.378.21-.798.21-1.26 0-.457-.07-.873-.21-1.246a1.916 1.916 0 0 0-.651-.896c-.294-.224-.667-.336-1.12-.336-.429 0-.779.105-1.05.315-.271.205-.471.495-.602.868-.126.369-.189.8-.189 1.295 0 .49.063.922.189 1.295.131.373.334.665.609.875.28.205.646.308 1.099.308Zm8.69 1.512c-.765 0-1.437-.166-2.016-.497a3.539 3.539 0 0 1-1.358-1.379c-.322-.588-.483-1.265-.483-2.03 0-.826.159-1.542.476-2.149a3.473 3.473 0 0 1 1.323-1.421c.565-.336 1.218-.504 1.96-.504.784 0 1.449.184 1.995.553.551.364.959.88 1.225 1.547.266.667.366 1.454.301 2.359h-1.673v-.616c-.005-.821-.149-1.421-.434-1.799-.285-.378-.733-.567-1.344-.567-.691 0-1.204.215-1.54.644-.336.425-.504 1.048-.504 1.869 0 .765.168 1.358.504 1.778.336.42.826.63 1.47.63.415 0 .772-.091 1.071-.273.303-.187.537-.455.7-.805l1.666.504a3.373 3.373 0 0 1-1.344 1.589 3.677 3.677 0 0 1-1.995.567Zm-2.604-3.521v-1.274h5.201v1.274h-5.201Zm7.589 3.311v-7.56h1.491v1.841l-.182-.238c.093-.252.217-.48.371-.686.159-.21.348-.383.567-.518.187-.126.392-.224.616-.294.229-.075.462-.119.7-.133.238-.019.469-.01.693.028v1.575a2.166 2.166 0 0 0-.777-.063 1.78 1.78 0 0 0-.784.245 1.762 1.762 0 0 0-.574.483c-.145.196-.252.42-.322.672-.07.247-.105.516-.105.805v3.843h-1.694Zm14.671 0v-4.592c0-.518-.129-.922-.385-1.211-.257-.294-.605-.441-1.043-.441-.271 0-.514.063-.728.189a1.287 1.287 0 0 0-.511.546 1.803 1.803 0 0 0-.189.854l-.749-.441c-.005-.523.112-.982.35-1.379a2.55 2.55 0 0 1 .98-.938c.41-.224.868-.336 1.372-.336.835 0 1.474.252 1.918.756.448.5.672 1.157.672 1.974v5.019h-1.687Zm-9.093 0v-7.56h1.491v2.345h.21v5.215h-1.701Zm4.557 0v-4.571c0-.527-.129-.938-.385-1.232-.257-.294-.607-.441-1.05-.441-.43 0-.775.147-1.036.441-.257.294-.385.677-.385 1.148l-.756-.504c0-.49.121-.931.364-1.323.242-.392.569-.7.98-.924a2.837 2.837 0 0 1 1.393-.343c.564 0 1.036.121 1.414.364.382.238.667.565.854.98.191.41.287.875.287 1.393v5.012h-1.68Zm8.188-8.708v-1.547h1.687v1.547h-1.687Zm0 8.708v-7.56h1.687v7.56h-1.687Zm6.703.21c-.933 0-1.691-.21-2.275-.63-.583-.42-.938-1.01-1.064-1.771l1.722-.266c.089.373.285.667.588.882.304.215.686.322 1.148.322.406 0 .719-.08.938-.238a.78.78 0 0 0 .336-.665.632.632 0 0 0-.126-.413c-.079-.107-.256-.21-.532-.308a16.77 16.77 0 0 0-1.267-.371c-.634-.168-1.138-.348-1.512-.539-.373-.196-.641-.427-.805-.693-.163-.266-.245-.588-.245-.966 0-.471.124-.882.371-1.232.248-.35.593-.618 1.036-.805.444-.191.966-.287 1.568-.287.588 0 1.109.091 1.561.273.458.182.826.441 1.106.777.28.336.453.73.518 1.183l-1.722.308a1.084 1.084 0 0 0-.441-.763c-.247-.187-.578-.292-.994-.315-.396-.023-.716.037-.959.182-.242.14-.364.338-.364.595 0 .145.049.268.147.371.098.103.294.205.588.308.299.103.742.229 1.33.378.602.154 1.083.331 1.442.532.364.196.626.432.784.707.164.275.245.609.245 1.001 0 .76-.277 1.358-.833 1.792-.55.434-1.313.651-2.289.651Zm7.575 0c-.934 0-1.692-.21-2.275-.63-.584-.42-.938-1.01-1.064-1.771l1.722-.266c.088.373.284.667.588.882.303.215.686.322 1.148.322.406 0 .718-.08.938-.238a.78.78 0 0 0 .336-.665.632.632 0 0 0-.126-.413c-.08-.107-.257-.21-.532-.308a17.06 17.06 0 0 0-1.267-.371c-.635-.168-1.139-.348-1.512-.539-.374-.196-.642-.427-.805-.693-.164-.266-.245-.588-.245-.966 0-.471.123-.882.371-1.232.247-.35.592-.618 1.036-.805.443-.191.966-.287 1.568-.287.588 0 1.108.091 1.561.273.457.182.826.441 1.106.777.28.336.452.73.518 1.183l-1.722.308a1.084 1.084 0 0 0-.441-.763c-.248-.187-.579-.292-.994-.315-.397-.023-.717.037-.959.182-.243.14-.364.338-.364.595 0 .145.049.268.147.371.098.103.294.205.588.308.298.103.742.229 1.33.378.602.154 1.082.331 1.442.532.364.196.625.432.784.707.163.275.245.609.245 1.001 0 .76-.278 1.358-.833 1.792-.551.434-1.314.651-2.289.651Zm4.795-8.918v-1.547h1.687v1.547h-1.687Zm0 8.708v-7.56h1.687v7.56h-1.687Zm7.123.21c-.756 0-1.417-.17-1.981-.511a3.503 3.503 0 0 1-1.316-1.407c-.308-.602-.462-1.293-.462-2.072 0-.793.158-1.489.476-2.086a3.505 3.505 0 0 1 1.323-1.4c.564-.336 1.218-.504 1.96-.504.76 0 1.423.17 1.988.511.564.34 1.003.812 1.316 1.414.312.597.469 1.286.469 2.065 0 .784-.159 1.477-.476 2.079a3.517 3.517 0 0 1-1.316 1.407c-.565.336-1.225.504-1.981.504Zm0-1.582c.672 0 1.171-.224 1.498-.672.326-.448.49-1.027.49-1.736 0-.733-.166-1.316-.497-1.75-.332-.439-.829-.658-1.491-.658-.453 0-.826.103-1.12.308-.29.2-.504.483-.644.847-.14.36-.21.777-.21 1.253 0 .733.165 1.318.497 1.757.336.434.828.651 1.477.651Zm10.544 1.372v-3.64c0-.238-.016-.502-.049-.791a2.753 2.753 0 0 0-.231-.833 1.582 1.582 0 0 0-.532-.665c-.233-.173-.551-.259-.952-.259-.215 0-.427.035-.637.105-.21.07-.401.191-.574.364-.168.168-.303.401-.406.7-.103.294-.154.672-.154 1.134l-1.001-.427c0-.644.124-1.227.371-1.75a2.98 2.98 0 0 1 1.106-1.246c.485-.313 1.083-.469 1.792-.469.56 0 1.022.093 1.386.28.364.187.653.425.868.714.215.29.373.597.476.924.103.327.168.637.196.931.033.29.049.525.049.707v4.221h-1.708Zm-5.243 0v-7.56h1.505v2.345h.203v5.215h-1.708Zm11.697.21c-.934 0-1.692-.21-2.275-.63-.584-.42-.938-1.01-1.064-1.771l1.722-.266c.088.373.284.667.588.882.303.215.686.322 1.148.322.406 0 .718-.08.938-.238a.78.78 0 0 0 .336-.665.632.632 0 0 0-.126-.413c-.08-.107-.257-.21-.532-.308a17.06 17.06 0 0 0-1.267-.371c-.635-.168-1.139-.348-1.512-.539-.374-.196-.642-.427-.805-.693-.164-.266-.245-.588-.245-.966 0-.471.123-.882.371-1.232.247-.35.592-.618 1.036-.805.443-.191.966-.287 1.568-.287.588 0 1.108.091 1.561.273.457.182.826.441 1.106.777.28.336.452.73.518 1.183l-1.722.308a1.084 1.084 0 0 0-.441-.763c-.248-.187-.579-.292-.994-.315-.397-.023-.717.037-.959.182-.243.14-.364.338-.364.595 0 .145.049.268.147.371.098.103.294.205.588.308.298.103.742.229 1.33.378.602.154 1.082.331 1.442.532.364.196.625.432.784.707.163.275.245.609.245 1.001 0 .76-.278 1.358-.833 1.792-.551.434-1.314.651-2.289.651Z" fill="#EDEDEC"/><path d="M31.445 171.818c8.837 0 16-7.163 16-16 0-8.836-7.163-16-16-16-8.836 0-16 7.164-16 16 0 8.837 7.164 16 16 16Z" fill="#974EF2"/><mask id="j" style="mask-type:alpha" maskUnits="userSpaceOnUse" x="22" y="146" width="19" height="20"><path fill="#D9D9D9" d="M22.105 146.479h18.681v18.681H22.105z"/></mask><g mask="url(#j)"><path d="m29.538 160.84-4.787-4.787 1.479-1.479 3.308 3.327 7.122-7.141 1.48 1.479-8.602 8.601Z" fill="#fff"/></g><path d="M58.425 149.818v-10.08h3.213c.084 0 .25.003.497.007.252.005.495.021.728.049.798.103 1.473.388 2.023.854a4.336 4.336 0 0 1 1.26 1.771 6.35 6.35 0 0 1 .427 2.359c0 .854-.142 1.641-.427 2.359a4.38 4.38 0 0 1-1.26 1.778c-.55.462-1.225.745-2.023.847a6.821 6.821 0 0 1-.72.049c-.253.005-.42.007-.505.007h-3.213Zm1.715-1.589h1.498c.14 0 .318-.004.532-.014.22-.009.413-.03.581-.063a1.99 1.99 0 0 0 1.162-.637 3.13 3.13 0 0 0 .658-1.225 5.21 5.21 0 0 0 .217-1.512c0-.546-.072-1.059-.217-1.54a3.04 3.04 0 0 0-.672-1.211 2.025 2.025 0 0 0-1.148-.623 3.044 3.044 0 0 0-.58-.063 13.277 13.277 0 0 0-.533-.014H60.14v6.902Zm11.525 1.799c-.765 0-1.437-.165-2.016-.497a3.538 3.538 0 0 1-1.358-1.379c-.322-.588-.483-1.264-.483-2.03 0-.826.159-1.542.476-2.149a3.48 3.48 0 0 1 1.323-1.421c.565-.336 1.218-.504 1.96-.504.784 0 1.449.185 1.995.553.55.364.959.88 1.225 1.547.266.668.366 1.454.301 2.359h-1.673v-.616c-.005-.821-.15-1.421-.434-1.799-.285-.378-.733-.567-1.344-.567-.69 0-1.204.215-1.54.644-.336.425-.504 1.048-.504 1.869 0 .766.168 1.358.504 1.778.336.42.826.63 1.47.63.415 0 .772-.091 1.071-.273.303-.186.537-.455.7-.805l1.666.504a3.373 3.373 0 0 1-1.344 1.589 3.677 3.677 0 0 1-1.995.567Zm-2.604-3.521v-1.274h5.201v1.274h-5.201Zm8.247 3.311v-7.679c0-.191.007-.401.02-.63.015-.233.055-.464.12-.693.065-.228.184-.436.357-.623.215-.238.446-.401.693-.49.252-.093.5-.144.742-.154.243-.014.455-.021.637-.021h.945v1.372h-.875c-.322 0-.562.082-.721.245-.154.159-.231.369-.231.63v8.043h-1.687Zm-1.218-6.237v-1.323h4.732v1.323H76.09Zm6.202-2.471v-1.547h1.687v1.547h-1.687Zm0 8.708v-7.56h1.687v7.56h-1.687Zm9.02 0v-3.64c0-.238-.016-.501-.049-.791a2.739 2.739 0 0 0-.23-.833 1.586 1.586 0 0 0-.532-.665c-.234-.172-.551-.259-.953-.259-.214 0-.427.035-.636.105a1.47 1.47 0 0 0-.575.364c-.168.168-.303.402-.406.7-.102.294-.153.672-.153 1.134l-1.002-.427c0-.644.124-1.227.371-1.75.252-.522.621-.938 1.106-1.246.486-.312 1.083-.469 1.793-.469.56 0 1.021.094 1.385.28.365.187.654.425.868.714.215.29.374.598.476.924.103.327.168.637.197.931.032.29.049.525.049.707v4.221h-1.709Zm-5.242 0v-7.56h1.505v2.345h.203v5.215h-1.709Zm12.091.21c-.765 0-1.437-.165-2.016-.497a3.538 3.538 0 0 1-1.358-1.379c-.322-.588-.483-1.264-.483-2.03 0-.826.159-1.542.476-2.149a3.48 3.48 0 0 1 1.323-1.421c.565-.336 1.218-.504 1.96-.504.784 0 1.45.185 1.995.553.551.364.959.88 1.225 1.547.266.668.366 1.454.301 2.359h-1.673v-.616c-.005-.821-.15-1.421-.434-1.799-.285-.378-.733-.567-1.344-.567-.69 0-1.204.215-1.54.644-.336.425-.504 1.048-.504 1.869 0 .766.168 1.358.504 1.778.336.42.826.63 1.47.63.415 0 .772-.091 1.071-.273.303-.186.537-.455.7-.805l1.666.504a3.37 3.37 0 0 1-1.344 1.589 3.676 3.676 0 0 1-1.995.567Zm-2.604-3.521v-1.274h5.201v1.274h-5.2Zm-37.132 25.311v-7.56h1.491v1.841l-.182-.238c.094-.252.217-.48.371-.686.159-.21.348-.382.567-.518.187-.126.392-.224.616-.294a2.8 2.8 0 0 1 .7-.133c.238-.018.47-.009.693.028v1.575a2.18 2.18 0 0 0-.777-.063c-.289.024-.55.105-.784.245a1.762 1.762 0 0 0-.574.483c-.144.196-.252.42-.322.672-.07.248-.105.516-.105.805v3.843h-1.694Zm8.892.21c-.765 0-1.437-.165-2.016-.497a3.537 3.537 0 0 1-1.358-1.379c-.322-.588-.483-1.264-.483-2.03 0-.826.16-1.542.476-2.149a3.479 3.479 0 0 1 1.323-1.421c.565-.336 1.218-.504 1.96-.504.784 0 1.45.185 1.995.553.551.364.96.88 1.225 1.547.266.668.367 1.454.301 2.359h-1.673v-.616c-.004-.821-.149-1.421-.434-1.799-.284-.378-.732-.567-1.344-.567-.69 0-1.204.215-1.54.644-.336.425-.504 1.048-.504 1.869 0 .766.168 1.358.504 1.778.336.42.826.63 1.47.63.416 0 .773-.091 1.071-.273.304-.186.537-.455.7-.805l1.666.504a3.373 3.373 0 0 1-1.344 1.589 3.677 3.677 0 0 1-1.995.567Zm-2.604-3.521v-1.274h5.201v1.274h-5.2Zm10.508 3.521c-.933 0-1.691-.21-2.275-.63-.583-.42-.938-1.01-1.064-1.771l1.722-.266c.089.374.285.668.588.882.304.215.686.322 1.148.322.406 0 .719-.079.938-.238a.78.78 0 0 0 .336-.665.634.634 0 0 0-.126-.413c-.08-.107-.256-.21-.532-.308a17.276 17.276 0 0 0-1.267-.371c-.634-.168-1.138-.347-1.512-.539-.373-.196-.641-.427-.805-.693-.163-.266-.245-.588-.245-.966 0-.471.124-.882.371-1.232.248-.35.593-.618 1.036-.805.444-.191.966-.287 1.568-.287.588 0 1.109.091 1.561.273.458.182.826.441 1.106.777.28.336.453.731.518 1.183l-1.722.308a1.085 1.085 0 0 0-.44-.763c-.248-.186-.58-.291-.995-.315-.396-.023-.716.038-.959.182-.242.14-.364.339-.364.595 0 .145.05.269.147.371.098.103.294.206.588.308.299.103.742.229 1.33.378.602.154 1.083.332 1.442.532.364.196.626.432.784.707.164.276.245.609.245 1.001 0 .761-.277 1.358-.833 1.792-.55.434-1.313.651-2.289.651Zm7.995 0c-.756 0-1.417-.17-1.981-.511a3.501 3.501 0 0 1-1.317-1.407c-.308-.602-.462-1.292-.462-2.072 0-.793.16-1.488.477-2.086a3.511 3.511 0 0 1 1.322-1.4c.565-.336 1.219-.504 1.96-.504.761 0 1.424.171 1.989.511a3.5 3.5 0 0 1 1.316 1.414c.312.598.469 1.286.469 2.065 0 .784-.16 1.477-.477 2.079a3.501 3.501 0 0 1-1.316 1.407c-.564.336-1.224.504-1.98.504Zm0-1.582c.672 0 1.17-.224 1.498-.672.326-.448.49-1.026.49-1.736 0-.732-.166-1.316-.497-1.75-.332-.438-.829-.658-1.491-.658-.453 0-.826.103-1.12.308-.29.201-.505.483-.645.847-.14.36-.21.777-.21 1.253 0 .733.166 1.319.498 1.757.335.434.828.651 1.477.651Zm8.15 1.589c-.56 0-1.022-.093-1.386-.28a2.433 2.433 0 0 1-.868-.714 3.098 3.098 0 0 1-.476-.924 4.915 4.915 0 0 1-.203-.924 7.869 7.869 0 0 1-.042-.714v-4.221h1.708v3.64c0 .234.016.497.049.791.032.29.107.57.224.84.121.266.298.486.532.658.238.173.557.259.959.259.214 0 .427-.035.637-.105.21-.07.399-.189.567-.357.172-.172.31-.408.413-.707.102-.298.154-.676.154-1.134l1 .427c0 .644-.125 1.228-.377 1.75a2.972 2.972 0 0 1-1.1 1.253c-.485.308-1.082.462-1.791.462Zm2.47-.217v-2.345h-.202v-5.215h1.694v7.56h-1.491Zm3.459 0v-7.56h1.49v1.841l-.181-.238c.093-.252.216-.48.37-.686.16-.21.348-.382.567-.518.187-.126.392-.224.616-.294.229-.074.462-.119.7-.133.238-.018.469-.009.693.028v1.575a2.18 2.18 0 0 0-.777-.063c-.289.024-.55.105-.783.245a1.761 1.761 0 0 0-.575.483c-.144.196-.252.42-.322.672-.07.248-.105.516-.105.805v3.843h-1.694Zm8.738.21c-.78 0-1.445-.172-1.995-.518a3.447 3.447 0 0 1-1.267-1.428c-.29-.602-.437-1.283-.441-2.044.004-.774.156-1.46.455-2.058a3.429 3.429 0 0 1 1.288-1.414c.555-.345 1.215-.518 1.981-.518.858 0 1.584.217 2.177.651.597.43.987 1.018 1.169 1.764l-1.68.455c-.131-.406-.348-.721-.651-.945a1.682 1.682 0 0 0-1.036-.343c-.439 0-.801.105-1.085.315a1.79 1.79 0 0 0-.63.854 3.523 3.523 0 0 0-.203 1.239c0 .719.161 1.3.483 1.743.322.444.8.665 1.435.665.448 0 .8-.102 1.057-.308.261-.205.457-.501.588-.889l1.722.385c-.234.77-.642 1.363-1.225 1.778-.584.411-1.298.616-2.142.616Zm8.001 0c-.765 0-1.437-.165-2.016-.497a3.544 3.544 0 0 1-1.358-1.379c-.322-.588-.483-1.264-.483-2.03 0-.826.159-1.542.476-2.149a3.488 3.488 0 0 1 1.323-1.421c.565-.336 1.218-.504 1.96-.504.784 0 1.449.185 1.995.553.551.364.959.88 1.225 1.547.266.668.367 1.454.301 2.359h-1.673v-.616c-.004-.821-.149-1.421-.434-1.799-.284-.378-.732-.567-1.344-.567-.69 0-1.204.215-1.54.644-.336.425-.504 1.048-.504 1.869 0 .766.168 1.358.504 1.778.336.42.826.63 1.47.63.416 0 .773-.091 1.071-.273.304-.186.537-.455.7-.805l1.666.504a3.37 3.37 0 0 1-1.344 1.589 3.677 3.677 0 0 1-1.995.567Zm-2.604-3.521v-1.274h5.201v1.274h-5.201Zm10.508 3.521c-.933 0-1.692-.21-2.275-.63-.583-.42-.938-1.01-1.064-1.771l1.722-.266c.089.374.285.668.588.882.303.215.686.322 1.148.322.406 0 .719-.079.938-.238a.78.78 0 0 0 .336-.665.634.634 0 0 0-.126-.413c-.079-.107-.257-.21-.532-.308a17.26 17.26 0 0 0-1.267-.371c-.635-.168-1.139-.347-1.512-.539-.373-.196-.642-.427-.805-.693-.163-.266-.245-.588-.245-.966 0-.471.124-.882.371-1.232s.593-.618 1.036-.805c.443-.191.966-.287 1.568-.287.588 0 1.108.091 1.561.273.457.182.826.441 1.106.777.28.336.453.731.518 1.183l-1.722.308a1.085 1.085 0 0 0-.441-.763c-.247-.186-.579-.291-.994-.315-.397-.023-.716.038-.959.182-.243.14-.364.339-.364.595 0 .145.049.269.147.371.098.103.294.206.588.308.299.103.742.229 1.33.378.602.154 1.083.332 1.442.532.364.196.625.432.784.707.163.276.245.609.245 1.001 0 .761-.278 1.358-.833 1.792-.551.434-1.314.651-2.289.651Z" fill="#EDEDEC"/><rect x="6" y="330.605" width="320.645" height="129.645" rx="14.822" fill="#fff" fill-opacity=".1"/><rect x="13.411" y="338.018" width="305.822" height="114.822" rx="11.858" fill="#BFBFBF" fill-opacity=".2"/><path d="M22.262 353.609h1.212v1.273h.061c.505-.97 1.309-1.455 2.41-1.455.96 0 1.707.359 2.243 1.076.546.718.818 1.723.818 3.016 0 1.294-.272 2.299-.818 3.016-.535.718-1.283 1.077-2.243 1.077-1.101 0-1.905-.485-2.41-1.455h-.06v4.304h-1.213v-10.852Zm3.213 6.926c.707 0 1.253-.212 1.637-.636.394-.435.591-1.005.591-1.713v-1.333c0-.708-.197-1.273-.591-1.698-.384-.434-.93-.652-1.637-.652-.273 0-.53.036-.773.107-.242.07-.455.176-.636.318a1.495 1.495 0 0 0-.44.5 1.445 1.445 0 0 0-.152.682v2.819c0 .263.051.495.152.697.111.192.258.359.44.5.181.132.394.233.636.303.243.071.5.106.773.106Zm9.118 1.077a3.9 3.9 0 0 1-1.53-.288 3.33 3.33 0 0 1-1.153-.819 3.922 3.922 0 0 1-.727-1.288 5.2 5.2 0 0 1-.258-1.682c0-.627.086-1.193.258-1.698.182-.505.43-.934.742-1.288a3.135 3.135 0 0 1 1.122-.834 3.669 3.669 0 0 1 1.47-.288c.526 0 1 .096 1.425.288.434.192.803.46 1.106.804.303.333.536.732.697 1.197.162.465.243.975.243 1.531v.576h-5.79v.363c0 .344.056.662.167.955.111.293.268.546.47.758.212.212.465.379.758.5a2.89 2.89 0 0 0 1 .167c.525 0 .98-.121 1.364-.364a2.35 2.35 0 0 0 .879-1l.894.606c-.232.525-.621.96-1.167 1.303-.535.334-1.192.501-1.97.501Zm-.076-7.184a2.31 2.31 0 0 0-1.667.682 2.423 2.423 0 0 0-.485.758 2.543 2.543 0 0 0-.167.939v.106h4.486v-.166a2.55 2.55 0 0 0-.166-.94 2.036 2.036 0 0 0-.44-.728 1.764 1.764 0 0 0-.682-.485 2.237 2.237 0 0 0-.879-.166Zm5.647 5.971h2.289v-5.759h-2.289v-1.031h3.501v1.971h.076c.162-.617.465-1.097.91-1.44.454-.354 1.03-.531 1.727-.531h1.091v1.213H46c-.697 0-1.263.202-1.697.606-.424.404-.637.935-.637 1.591v3.38h3.032v1.031h-6.533v-1.031Zm8.74 1.031v-7.821h1.12v.91h.062c.12-.303.293-.561.515-.773.222-.212.55-.319.985-.319.455 0 .793.117 1.015.349.223.222.36.515.41.879h.045c.142-.354.344-.647.606-.879.263-.232.627-.349 1.092-.349.636 0 1.06.223 1.273.667.222.445.333 1.081.333 1.91v5.426h-1.121v-5.229c0-.667-.071-1.127-.213-1.379-.131-.263-.379-.394-.742-.394-.324 0-.586.106-.788.318-.203.202-.303.515-.303.94v5.744H52.07v-5.229c0-.667-.07-1.127-.212-1.379-.132-.263-.374-.394-.728-.394a1.09 1.09 0 0 0-.803.318c-.202.202-.303.515-.303.94v5.744h-1.122Zm13.3-9.548c-.353 0-.6-.071-.742-.213a.788.788 0 0 1-.213-.56v-.243a.74.74 0 0 1 .213-.546c.141-.151.389-.227.742-.227.354 0 .601.076.743.227a.74.74 0 0 1 .212.546v.243c0 .222-.07.409-.212.56-.142.142-.39.213-.743.213Zm-3.425 8.517h2.819v-5.759h-2.819v-1.031h4.031v6.79h2.638v1.031h-6.669v-1.031Zm12.407 1.031c-.596 0-1.036-.167-1.319-.5-.273-.334-.41-.763-.41-1.289v-5.001h-2.606v-1.031h1.94c.263 0 .445-.05.546-.151.11-.111.166-.298.166-.561v-2.046h1.167v2.758h3.562v1.031H70.67v5.759h3.562v1.031h-3.046Zm8.708.136c-.414 0-.707-.086-.879-.258a.912.912 0 0 1-.242-.651v-.273c0-.263.08-.48.242-.652.172-.172.465-.257.88-.257.414 0 .702.085.863.257a.884.884 0 0 1 .258.652v.273c0 .262-.086.48-.258.651-.161.172-.45.258-.864.258Zm9.36.046c-.565 0-1.07-.096-1.515-.288a3.23 3.23 0 0 1-1.106-.834 3.676 3.676 0 0 1-.697-1.288 5.844 5.844 0 0 1-.228-1.683c0-.616.081-1.177.243-1.682.161-.505.394-.934.697-1.288a2.998 2.998 0 0 1 1.106-.834c.435-.192.93-.288 1.486-.288.757 0 1.374.167 1.849.501.475.333.823.767 1.045 1.303l-.97.515a1.81 1.81 0 0 0-.712-.939c-.323-.223-.727-.334-1.212-.334-.354 0-.672.061-.955.182a1.887 1.887 0 0 0-.697.485 2.166 2.166 0 0 0-.44.758 3.204 3.204 0 0 0-.136.955v1.333c0 .344.045.662.136.955.101.293.248.546.44.758.192.212.429.379.712.5.283.111.606.167.97.167.525 0 .96-.121 1.303-.364.344-.242.617-.576.819-1l.864.591c-.233.525-.597.96-1.092 1.303-.485.344-1.121.516-1.91.516Zm5.754-11.398h1.213v4.668h.06c.08-.192.182-.373.303-.545a1.94 1.94 0 0 1 .44-.47c.182-.131.394-.237.636-.318a2.68 2.68 0 0 1 .849-.122c.818 0 1.475.263 1.97.789.495.515.743 1.247.743 2.197v5.017h-1.213v-4.805c0-.717-.156-1.248-.47-1.591-.313-.354-.772-.531-1.379-.531-.242 0-.48.031-.712.091-.232.061-.44.152-.621.273a1.396 1.396 0 0 0-.44.47 1.307 1.307 0 0 0-.166.667v5.426h-1.213v-11.216Zm12.285 11.398a3.896 3.896 0 0 1-1.53-.288 3.323 3.323 0 0 1-1.152-.819 3.93 3.93 0 0 1-.728-1.288 5.222 5.222 0 0 1-.257-1.682c0-.627.086-1.193.257-1.698.182-.505.43-.934.743-1.288a3.13 3.13 0 0 1 1.122-.834 3.665 3.665 0 0 1 1.47-.288c.525 0 1 .096 1.424.288.435.192.804.46 1.107.804.303.333.535.732.697 1.197.162.465.242.975.242 1.531v.576h-5.789v.363c0 .344.055.662.167.955.111.293.267.546.469.758.213.212.465.379.758.5a2.89 2.89 0 0 0 1 .167c.526 0 .981-.121 1.364-.364.384-.242.677-.576.88-1l.894.606c-.233.525-.622.96-1.167 1.303-.536.334-1.193.501-1.971.501Zm-.075-7.184a2.31 2.31 0 0 0-1.667.682 2.403 2.403 0 0 0-.485.758 2.527 2.527 0 0 0-.167.939v.106h4.486v-.166c0-.344-.056-.657-.167-.94a2.033 2.033 0 0 0-.439-.728 1.764 1.764 0 0 0-.682-.485 2.24 2.24 0 0 0-.879-.166Zm9.299 7.184c-.565 0-1.071-.096-1.515-.288a3.235 3.235 0 0 1-1.107-.834 3.683 3.683 0 0 1-.697-1.288 5.861 5.861 0 0 1-.227-1.683c0-.616.081-1.177.242-1.682.162-.505.395-.934.698-1.288a2.999 2.999 0 0 1 1.106-.834c.434-.192.93-.288 1.485-.288.758 0 1.374.167 1.849.501a2.93 2.93 0 0 1 1.046 1.303l-.97.515a1.81 1.81 0 0 0-.712-.939c-.324-.223-.728-.334-1.213-.334a2.41 2.41 0 0 0-.955.182 1.893 1.893 0 0 0-.697.485 2.165 2.165 0 0 0-.439.758 3.204 3.204 0 0 0-.137.955v1.333c0 .344.046.662.137.955a2.017 2.017 0 0 0 1.152 1.258c.283.111.606.167.97.167.525 0 .959-.121 1.303-.364.344-.242.616-.576.818-1l.864.591c-.232.525-.596.96-1.091 1.303-.485.344-1.121.516-1.91.516Zm5.86-11.398h1.212v7.078h.061l1.364-1.288 2.607-2.395h1.485l-3.243 3.062 3.622 4.759h-1.501l-3.046-4.062-1.349 1.228v2.834h-1.212v-11.216Zm21.418 13.307c-.424 0-.742-.121-.955-.364-.212-.232-.318-.525-.318-.879v-.954c0-.273.025-.511.076-.713.061-.202.131-.384.212-.545.081-.162.172-.303.273-.425.101-.131.197-.252.288-.363.172-.203.288-.374.348-.516.071-.151.107-.308.107-.47 0-.384-.177-.661-.531-.833-.354-.182-.874-.273-1.561-.273h-1.182v-.94h1.182c.687 0 1.207-.085 1.561-.257.354-.182.531-.465.531-.849 0-.162-.036-.313-.107-.455a2.023 2.023 0 0 0-.348-.53 95.847 95.847 0 0 0-.288-.349 3.013 3.013 0 0 1-.273-.424 3.454 3.454 0 0 1-.212-.546 3.122 3.122 0 0 1-.076-.727v-.955c0-.354.106-.647.318-.879.213-.242.531-.364.955-.364h2.668v.94h-2.895v1.167c0 .414.061.732.182.955.121.222.262.439.424.651.172.223.334.455.485.698.152.232.227.51.227.833 0 .425-.151.768-.454 1.031-.293.262-.697.429-1.213.5v.061c.516.07.92.237 1.213.5.303.262.454.606.454 1.03 0 .324-.075.607-.227.849-.151.232-.313.46-.485.682a5.001 5.001 0 0 0-.424.652c-.121.222-.182.54-.182.955v1.167h2.895v.939h-2.668Zm-89.314 16.636h-.06c-.082.192-.183.378-.304.56a1.933 1.933 0 0 1-.455.455 2.128 2.128 0 0 1-.621.318 2.68 2.68 0 0 1-.849.122c-.818 0-1.475-.258-1.97-.773-.495-.526-.743-1.263-.743-2.213v-5.017h1.213v4.805c0 .717.156 1.253.47 1.606.313.344.773.515 1.379.515.242 0 .48-.03.712-.09.233-.061.44-.152.621-.273a1.45 1.45 0 0 0 .44-.455c.111-.192.167-.419.167-.682v-5.426h1.212v7.821h-1.212v-1.273Zm7.33 1.455c-.82 0-1.526-.137-2.123-.41a4.75 4.75 0 0 1-1.5-1.121l.818-.713c.374.395.783.698 1.228.91.445.212.98.318 1.606.318.607 0 1.102-.106 1.486-.318.394-.222.59-.566.59-1.031a.94.94 0 0 0-.12-.5.81.81 0 0 0-.303-.333 1.535 1.535 0 0 0-.44-.182 3.733 3.733 0 0 0-.515-.121l-1.228-.182a13.63 13.63 0 0 1-.894-.167 3.095 3.095 0 0 1-.864-.333 2.224 2.224 0 0 1-.667-.637c-.172-.263-.258-.606-.258-1.031 0-.394.076-.732.228-1.015.162-.293.384-.536.667-.727a2.804 2.804 0 0 1 1-.44 4.936 4.936 0 0 1 1.258-.152c.707 0 1.318.112 1.834.334.525.222.975.53 1.349.924l-.788.743a2.216 2.216 0 0 0-.35-.333 1.835 1.835 0 0 0-.5-.319 2.806 2.806 0 0 0-.681-.242 4.048 4.048 0 0 0-.91-.091c-.616 0-1.09.106-1.424.318-.324.212-.485.52-.485.925 0 .202.035.373.106.515.08.131.187.237.318.318.131.081.278.147.44.197.171.041.343.076.515.106l1.228.182c.282.041.58.096.894.167.313.071.6.187.864.348.262.152.48.359.651.622.182.263.273.606.273 1.03 0 .778-.303 1.38-.91 1.804-.595.424-1.393.637-2.394.637Zm9.132 0a3.9 3.9 0 0 1-1.53-.288 3.33 3.33 0 0 1-1.152-.819 3.92 3.92 0 0 1-.728-1.288 5.2 5.2 0 0 1-.258-1.682c0-.627.086-1.193.258-1.698.182-.505.43-.934.743-1.288a3.135 3.135 0 0 1 1.121-.834 3.67 3.67 0 0 1 1.47-.288c.526 0 1 .096 1.425.288.434.192.803.46 1.106.804.304.333.536.732.698 1.197.161.465.242.975.242 1.531v.576h-5.79v.363c0 .344.056.662.167.955.111.293.268.546.47.758.212.212.465.379.758.5a2.89 2.89 0 0 0 1 .167c.526 0 .98-.121 1.364-.364a2.35 2.35 0 0 0 .88-1l.894.606c-.233.525-.622.96-1.168 1.303-.535.334-1.192.501-1.97.501Zm-.076-7.184a2.31 2.31 0 0 0-1.667.682 2.425 2.425 0 0 0-.485.758 2.545 2.545 0 0 0-.166.939v.106h4.486v-.166a2.55 2.55 0 0 0-.167-.94 2.034 2.034 0 0 0-.44-.728 1.765 1.765 0 0 0-.681-.485 2.237 2.237 0 0 0-.88-.166Zm5.648 5.971h2.288v-5.759h-2.288v-1.031h3.5v1.971h.076c.162-.617.465-1.097.91-1.44.454-.354 1.03-.531 1.727-.531h1.092v1.213h-1.47c-.698 0-1.263.202-1.698.606-.424.404-.636.935-.636 1.591v3.38h3.03v1.031h-6.531v-1.031Zm20.979-5.986v-4.199h1.151v4.199h-1.151Zm5.935 7.017v-7.821h1.121v.91h.061c.121-.303.293-.561.515-.773.222-.212.551-.319.985-.319.455 0 .793.117 1.016.349.222.222.358.515.409.879h.045c.142-.354.344-.647.607-.879.262-.232.626-.349 1.091-.349.636 0 1.061.223 1.273.667.222.445.333 1.081.333 1.91v5.426h-1.121v-5.229c0-.667-.071-1.127-.212-1.379-.132-.263-.379-.394-.743-.394-.323 0-.586.106-.788.318-.202.202-.303.515-.303.94v5.744h-1.122v-5.229c0-.667-.07-1.127-.212-1.379-.131-.263-.374-.394-.727-.394-.324 0-.591.106-.804.318-.202.202-.303.515-.303.94v5.744h-1.121Zm13.301-9.548c-.354 0-.602-.071-.743-.213a.79.79 0 0 1-.212-.56v-.243c0-.222.071-.404.212-.546.141-.151.389-.227.743-.227.353 0 .601.076.742.227a.739.739 0 0 1 .212.546v.243c0 .222-.07.409-.212.56-.141.142-.389.213-.742.213Zm-3.426 8.517h2.819v-5.759h-2.819v-1.031h4.032v6.79h2.637v1.031h-6.669v-1.031Zm9.073-10.185h1.212v7.078h.061l1.364-1.288 2.607-2.395h1.485l-3.243 3.062 3.622 4.759h-1.501l-3.046-4.062-1.349 1.228v2.834h-1.212v-11.216Zm12.179 11.398a3.901 3.901 0 0 1-1.531-.288 3.329 3.329 0 0 1-1.151-.819 3.913 3.913 0 0 1-.728-1.288 5.194 5.194 0 0 1-.258-1.682c0-.627.086-1.193.258-1.698.182-.505.429-.934.743-1.288a3.135 3.135 0 0 1 1.121-.834 3.672 3.672 0 0 1 1.47-.288c.526 0 1.001.096 1.425.288.434.192.803.46 1.106.804.303.333.536.732.698 1.197.161.465.242.975.242 1.531v.576h-5.789v.363c0 .344.055.662.166.955.111.293.268.546.47.758.212.212.465.379.758.5.303.111.636.167 1 .167.526 0 .98-.121 1.364-.364.384-.242.677-.576.879-1l.894.606c-.232.525-.621.96-1.167 1.303-.535.334-1.192.501-1.97.501Zm-.076-7.184a2.309 2.309 0 0 0-1.667.682 2.421 2.421 0 0 0-.485.758 2.547 2.547 0 0 0-.166.939v.106h4.486v-.166c0-.344-.056-.657-.167-.94a2.035 2.035 0 0 0-.44-.728 1.757 1.757 0 0 0-.682-.485 2.232 2.232 0 0 0-.879-.166Zm9.027 7.138c-.414 0-.707-.086-.879-.258a.914.914 0 0 1-.242-.651v-.273c0-.263.081-.48.242-.652.172-.172.465-.257.879-.257.415 0 .703.085.864.257a.883.883 0 0 1 .258.652v.273a.88.88 0 0 1-.258.651c-.161.172-.449.258-.864.258Zm9.467-.136c-.596 0-1.036-.167-1.319-.5-.273-.334-.409-.763-.409-1.289v-5.001h-2.607v-1.031h1.94c.263 0 .445-.05.546-.151.111-.111.166-.298.166-.561v-2.046h1.167v2.758h3.562v1.031h-3.562v5.759h3.562v1.031h-3.046Zm10.557-1.273h-.06a3.39 3.39 0 0 1-.303.56 1.945 1.945 0 0 1-.455.455 2.134 2.134 0 0 1-.621.318 2.686 2.686 0 0 1-.849.122c-.819 0-1.475-.258-1.97-.773-.495-.526-.743-1.263-.743-2.213v-5.017h1.212v4.805c0 .717.157 1.253.47 1.606.314.344.773.515 1.379.515.243 0 .48-.03.713-.09.232-.061.439-.152.621-.273.182-.121.329-.273.44-.455.111-.192.166-.419.166-.682v-5.426h1.213v7.821h-1.213v-1.273Zm3.859.242h2.289v-5.759h-2.289v-1.031h3.501v1.971h.076c.162-.617.465-1.097.909-1.44.455-.354 1.031-.531 1.728-.531h1.091v1.213h-1.47c-.697 0-1.263.202-1.697.606-.425.404-.637.935-.637 1.591v3.38h3.031v1.031h-6.532v-1.031Zm9.406 1.031v-7.821h1.213v1.273h.06a2.91 2.91 0 0 1 .303-.545 1.95 1.95 0 0 1 .44-.47c.182-.131.394-.237.636-.318.243-.081.526-.122.849-.122.818 0 1.475.263 1.97.789.495.515.743 1.247.743 2.197v5.017h-1.213v-4.805c0-.717-.156-1.248-.469-1.591-.314-.354-.773-.531-1.38-.531-.242 0-.479.031-.712.091a2.057 2.057 0 0 0-.621.273 1.396 1.396 0 0 0-.44.47 1.308 1.308 0 0 0-.166.667v5.426h-1.213Zm12.286.182a3.898 3.898 0 0 1-1.531-.288 3.323 3.323 0 0 1-1.152-.819 3.93 3.93 0 0 1-.728-1.288 5.222 5.222 0 0 1-.257-1.682c0-.627.086-1.193.257-1.698.182-.505.43-.934.743-1.288a3.13 3.13 0 0 1 1.122-.834 3.665 3.665 0 0 1 1.47-.288c.525 0 1 .096 1.424.288.435.192.804.46 1.107.804.303.333.535.732.697 1.197.162.465.242.975.242 1.531v.576h-5.789v.363c0 .344.055.662.167.955.111.293.267.546.469.758.213.212.465.379.758.5.303.111.637.167 1.001.167.525 0 .98-.121 1.364-.364.383-.242.676-.576.879-1l.894.606c-.233.525-.622.96-1.167 1.303-.536.334-1.192.501-1.97.501Zm-.076-7.184a2.31 2.31 0 0 0-1.667.682 2.421 2.421 0 0 0-.485.758 2.527 2.527 0 0 0-.167.939v.106h4.486v-.166c0-.344-.056-.657-.167-.94a2.033 2.033 0 0 0-.439-.728 1.764 1.764 0 0 0-.682-.485 2.24 2.24 0 0 0-.879-.166Zm5.647 5.971h2.288v-5.759h-2.288v-1.031h3.501v1.971h.076c.161-.617.464-1.097.909-1.44.455-.354 1.031-.531 1.728-.531h1.091v1.213h-1.47c-.697 0-1.263.202-1.698.606-.424.404-.636.935-.636 1.591v3.38h3.031v1.031h-6.532v-1.031Zm14.801 2.728h-1.864c-.768 0-1.414-.131-1.94-.394a3.041 3.041 0 0 1-1.258-1.167c-.313-.515-.54-1.162-.682-1.94-.131-.778-.197-1.692-.197-2.743 0-1.172.076-2.152.227-2.94.162-.798.395-1.44.698-1.925.303-.485.677-.829 1.121-1.031.455-.212.98-.318 1.576-.318.607 0 1.122.096 1.546.288.435.192.788.455 1.061.788.273.334.47.733.591 1.197.132.455.197.945.197 1.471v5.638h-1.076v-.864h-.076a1.997 1.997 0 0 1-.5.727c-.232.212-.571.318-1.015.318-.616 0-1.107-.257-1.47-.773-.364-.525-.546-1.348-.546-2.47 0-1.121.182-1.945.546-2.47.363-.526.854-.788 1.47-.788.222 0 .414.03.576.09.172.061.318.142.439.243.122.101.223.212.303.333.081.122.147.248.197.379h.076v-.363c0-.859-.182-1.536-.545-2.031-.354-.495-.935-.743-1.743-.743-.9 0-1.546.349-1.94 1.046-.384.687-.576 1.793-.576 3.319v1.955c0 .586.04 1.137.121 1.652.081.505.227.95.44 1.334a2.4 2.4 0 0 0 .894.879c.384.222.879.333 1.485.333h1.864v.97Zm-1.197-3.804c.364 0 .652-.101.864-.303.222-.202.333-.495.333-.879v-2.319c0-.384-.111-.677-.333-.879-.212-.202-.5-.303-.864-.303-.424 0-.748.146-.97.439-.212.283-.318.763-.318 1.44v.925c0 .677.106 1.162.318 1.455.222.283.546.424.97.424Zm11.906 3.001c0 .788-.328 1.369-.985 1.743-.656.384-1.642.576-2.955.576-1.263 0-2.172-.167-2.728-.5-.546-.334-.819-.814-.819-1.44 0-.425.112-.753.334-.985.222-.233.535-.405.94-.516v-.182a1.355 1.355 0 0 1-.516-.424c-.121-.172-.182-.389-.182-.652 0-.404.132-.707.394-.909a2.854 2.854 0 0 1 1.016-.455v-.06a2.549 2.549 0 0 1-1.137-.94c-.262-.414-.394-.899-.394-1.455 0-.394.071-.758.212-1.091.142-.333.344-.616.607-.849.272-.242.596-.429.97-.561a3.732 3.732 0 0 1 1.242-.197c.586 0 1.102.107 1.546.319v-.137c0-.303.071-.555.212-.757.142-.203.384-.304.728-.304h1.44v1.061h-1.758v.531c.283.242.5.53.651.864.152.333.228.707.228 1.121 0 .394-.076.758-.228 1.091a2.46 2.46 0 0 1-.606.864 2.81 2.81 0 0 1-.97.546 3.738 3.738 0 0 1-1.243.197 4.635 4.635 0 0 1-.742-.061c-.122.02-.248.056-.379.106a1.23 1.23 0 0 0-.364.182.963.963 0 0 0-.273.258.597.597 0 0 0-.106.348c0 .233.116.389.349.47.232.071.535.106.909.106h1.728c1.01 0 1.743.192 2.197.576.455.374.682.879.682 1.516Zm-1.136.061a.908.908 0 0 0-.379-.758c-.253-.182-.692-.273-1.319-.273h-2.713c-.525.212-.788.566-.788 1.061 0 .343.137.636.41.879.272.252.727.379 1.364.379h1.182c.707 0 1.258-.111 1.652-.334.394-.212.591-.53.591-.954Zm-2.865-4.502c.607 0 1.051-.141 1.334-.424.293-.283.44-.657.44-1.122v-.439c0-.465-.147-.834-.44-1.107-.283-.282-.727-.424-1.334-.424-.606 0-1.05.142-1.333.424-.283.273-.425.642-.425 1.107v.439c0 .465.142.839.425 1.122.283.283.727.424 1.333.424Zm5.405 3.547v-7.821h1.122v.91h.06c.121-.303.293-.561.515-.773.223-.212.551-.319.986-.319.454 0 .793.117 1.015.349.222.222.359.515.409.879h.046a2.27 2.27 0 0 1 .606-.879c.263-.232.626-.349 1.091-.349.637 0 1.061.223 1.273.667.223.445.334 1.081.334 1.91v5.426h-1.122v-5.229c0-.667-.071-1.127-.212-1.379-.131-.263-.379-.394-.743-.394-.323 0-.586.106-.788.318-.202.202-.303.515-.303.94v5.744h-1.121v-5.229c0-.667-.071-1.127-.213-1.379-.131-.263-.373-.394-.727-.394-.323 0-.591.106-.803.318-.202.202-.303.515-.303.94v5.744h-1.122Zm15.771 0c-.475 0-.813-.122-1.015-.364a1.766 1.766 0 0 1-.379-.909h-.076a2.222 2.222 0 0 1-.833 1.076c-.374.252-.879.379-1.516.379-.818 0-1.47-.213-1.955-.637-.485-.424-.728-1.005-.728-1.743 0-.727.263-1.288.789-1.682.535-.394 1.394-.591 2.576-.591h1.667v-.773c0-.576-.161-1.006-.485-1.288-.323-.293-.783-.44-1.379-.44-.525 0-.955.106-1.288.318-.334.202-.601.48-.803.834l-.819-.606c.101-.202.238-.399.409-.591.172-.192.384-.359.637-.501.252-.151.54-.267.864-.348a3.964 3.964 0 0 1 1.076-.137c.919 0 1.647.233 2.182.698.546.464.819 1.111.819 1.94v4.304h1.091v1.061h-.834Zm-3.607-.834c.313 0 .596-.035.849-.106.263-.081.49-.182.682-.303.192-.131.338-.283.439-.455a1.08 1.08 0 0 0 .167-.576v-1.288h-1.667c-.727 0-1.258.101-1.591.303a.968.968 0 0 0-.5.879v.318c0 .405.141.713.424.925.293.202.692.303 1.197.303Zm10.224-8.714c-.353 0-.601-.071-.742-.213a.786.786 0 0 1-.212-.56v-.243c0-.222.07-.404.212-.546.141-.151.389-.227.742-.227.354 0 .602.076.743.227a.739.739 0 0 1 .212.546v.243c0 .222-.07.409-.212.56-.141.142-.389.213-.743.213Zm-3.425 8.517h2.819v-5.759h-2.819v-1.031h4.032v6.79h2.637v1.031h-6.669v-1.031Zm8.694 0h2.728v-9.154h-2.728v-1.031h3.94v10.185h2.728v1.031h-6.668v-1.031Zm12.422 1.167c-.415 0-.708-.086-.879-.258a.91.91 0 0 1-.243-.651v-.273c0-.263.081-.48.243-.652.171-.172.464-.257.879-.257.414 0 .702.085.863.257a.883.883 0 0 1 .258.652v.273a.88.88 0 0 1-.258.651c-.161.172-.449.258-.863.258Zm9.36.046c-.566 0-1.071-.096-1.516-.288a3.232 3.232 0 0 1-1.106-.834 3.667 3.667 0 0 1-.697-1.288 5.826 5.826 0 0 1-.228-1.683c0-.616.081-1.177.243-1.682.162-.505.394-.934.697-1.288a2.994 2.994 0 0 1 1.107-.834c.434-.192.929-.288 1.485-.288.758 0 1.374.167 1.849.501.475.333.823.767 1.046 1.303l-.97.515a1.81 1.81 0 0 0-.713-.939c-.323-.223-.727-.334-1.212-.334-.354 0-.672.061-.955.182a1.885 1.885 0 0 0-.697.485 2.167 2.167 0 0 0-.44.758 3.204 3.204 0 0 0-.136.955v1.333c0 .344.045.662.136.955.101.293.248.546.44.758.192.212.429.379.712.5.283.111.606.167.97.167.526 0 .96-.121 1.304-.364a2.52 2.52 0 0 0 .818-1l.864.591a3.09 3.09 0 0 1-1.091 1.303c-.485.344-1.122.516-1.91.516Zm8.815 0a3.712 3.712 0 0 1-1.486-.288 3.215 3.215 0 0 1-1.121-.819 3.851 3.851 0 0 1-.697-1.288 5.544 5.544 0 0 1-.243-1.698c0-.616.081-1.177.243-1.682.161-.505.394-.934.697-1.288a3.135 3.135 0 0 1 1.121-.834c.445-.192.94-.288 1.486-.288.545 0 1.035.096 1.47.288.444.192.818.47 1.121.834.314.354.551.783.713 1.288a5.52 5.52 0 0 1 .242 1.682c0 .627-.081 1.193-.242 1.698a3.713 3.713 0 0 1-.713 1.288 3.042 3.042 0 0 1-1.121.819 3.604 3.604 0 0 1-1.47.288Zm0-1.046c.677 0 1.222-.202 1.637-.606.414-.405.621-1.031.621-1.88v-1.121c0-.849-.207-1.475-.621-1.88-.415-.404-.96-.606-1.637-.606s-1.223.202-1.637.606c-.414.405-.622 1.031-.622 1.88v1.121c0 .849.208 1.475.622 1.88.414.404.96.606 1.637.606Zm5.359.864v-7.821h1.121v.91h.061c.121-.303.293-.561.515-.773.223-.212.551-.319.986-.319.454 0 .793.117 1.015.349.222.222.359.515.409.879h.046a2.27 2.27 0 0 1 .606-.879c.263-.232.626-.349 1.091-.349.637 0 1.061.223 1.273.667.222.445.334 1.081.334 1.91v5.426h-1.122v-5.229c0-.667-.071-1.127-.212-1.379-.131-.263-.379-.394-.743-.394-.323 0-.586.106-.788.318-.202.202-.303.515-.303.94v5.744h-1.122v-5.229c0-.667-.07-1.127-.212-1.379-.131-.263-.374-.394-.727-.394-.323 0-.591.106-.803.318-.203.202-.304.515-.304.94v5.744h-1.121Zm12.24-7.017v-4.199h1.152v4.199h-1.152ZM55.587 401.43c-.475 0-.813-.122-1.015-.364a1.771 1.771 0 0 1-.38-.909h-.075c-.172.454-.45.813-.834 1.076-.373.252-.879.379-1.515.379-.819 0-1.47-.213-1.955-.637-.485-.424-.728-1.005-.728-1.743 0-.727.263-1.288.788-1.682.536-.394 1.395-.591 2.577-.591h1.667v-.773c0-.576-.162-1.006-.485-1.288-.323-.293-.783-.44-1.38-.44-.525 0-.954.106-1.288.318-.333.202-.6.48-.803.834l-.818-.606c.1-.202.237-.399.41-.591.17-.192.383-.359.636-.501a3.18 3.18 0 0 1 .863-.348 3.966 3.966 0 0 1 1.077-.137c.919 0 1.646.233 2.182.698.546.464.818 1.111.818 1.94v4.304h1.092v1.061h-.834Zm-3.607-.834c.313 0 .596-.035.849-.106.262-.081.49-.182.682-.303.192-.131.338-.283.44-.455.11-.182.166-.374.166-.576v-1.288H52.45c-.728 0-1.258.101-1.592.303a.969.969 0 0 0-.5.879v.318c0 .405.142.713.425.925.293.202.692.303 1.197.303Zm10.012 1.016c-.566 0-1.071-.096-1.515-.288a3.23 3.23 0 0 1-1.107-.834 3.676 3.676 0 0 1-.697-1.288 5.844 5.844 0 0 1-.227-1.683c0-.616.08-1.177.242-1.682.162-.505.394-.934.697-1.288a2.997 2.997 0 0 1 1.107-.834c.434-.192.93-.288 1.485-.288.758 0 1.374.167 1.849.501.475.333.823.767 1.046 1.303l-.97.515a1.81 1.81 0 0 0-.713-.939c-.323-.223-.727-.334-1.212-.334-.354 0-.672.061-.955.182a1.887 1.887 0 0 0-.697.485 2.166 2.166 0 0 0-.44.758c-.09.293-.136.611-.136.955v1.333c0 .344.045.662.136.955.101.293.248.546.44.758.192.212.43.379.712.5.283.111.607.167.97.167.526 0 .96-.121 1.304-.364.343-.242.616-.576.818-1l.864.591c-.233.525-.596.96-1.091 1.303-.485.344-1.122.516-1.91.516Zm9.194-.182c-.596 0-1.036-.167-1.319-.5-.273-.334-.41-.763-.41-1.289v-5.001h-2.606v-1.031h1.94c.263 0 .445-.05.546-.151.11-.111.166-.298.166-.561v-2.046h1.167v2.758h3.562v1.031H70.67v5.759h3.562v1.031h-3.046Zm9.193-9.548c-.353 0-.6-.071-.742-.213a.789.789 0 0 1-.213-.56v-.243c0-.222.071-.404.213-.546.141-.151.389-.227.742-.227.354 0 .602.076.743.227a.741.741 0 0 1 .212.546v.243c0 .222-.07.409-.212.56-.141.142-.389.213-.743.213Zm-3.425 8.517h2.82v-5.759h-2.82v-1.031h4.032v6.79h2.637v1.031h-6.669v-1.031Zm12.028 1.213c-.546 0-1.04-.096-1.485-.288a3.216 3.216 0 0 1-1.122-.819 3.86 3.86 0 0 1-.697-1.288 5.554 5.554 0 0 1-.242-1.698c0-.616.08-1.177.242-1.682.162-.505.394-.934.697-1.288a3.135 3.135 0 0 1 1.122-.834c.444-.192.94-.288 1.485-.288a3.6 3.6 0 0 1 1.47.288c.445.192.819.47 1.122.834.313.354.55.783.712 1.288.162.505.242 1.066.242 1.682 0 .627-.08 1.193-.242 1.698a3.72 3.72 0 0 1-.712 1.288 3.04 3.04 0 0 1-1.122.819 3.6 3.6 0 0 1-1.47.288Zm0-1.046c.677 0 1.222-.202 1.637-.606.414-.405.621-1.031.621-1.88v-1.121c0-.849-.207-1.475-.621-1.88-.415-.404-.96-.606-1.637-.606s-1.223.202-1.637.606c-.414.405-.621 1.031-.621 1.88v1.121c0 .849.207 1.475.621 1.88.414.404.96.606 1.637.606Zm6.026.864v-7.821h1.213v1.273h.06c.08-.192.182-.373.303-.545a1.94 1.94 0 0 1 .44-.47c.182-.131.394-.237.636-.318a2.68 2.68 0 0 1 .849-.122c.818 0 1.475.263 1.97.789.495.515.743 1.247.743 2.197v5.017h-1.213v-4.805c0-.717-.156-1.248-.47-1.591-.313-.354-.772-.531-1.379-.531-.242 0-.48.031-.712.091-.232.061-.44.152-.621.273a1.396 1.396 0 0 0-.44.47 1.307 1.307 0 0 0-.166.667v5.426h-1.213Zm20.661-7.017v-4.199h1.152v4.199h-1.152Zm10.012 7.199c-1.294 0-2.258-.47-2.895-1.41-.626-.94-.94-2.294-.94-4.062 0-1.768.314-3.122.94-4.061.637-.94 1.601-1.41 2.895-1.41.485 0 .904.066 1.258.197.353.131.656.308.909.531.253.222.465.474.637.757.171.273.323.551.454.834l-1.091.5a4.38 4.38 0 0 0-.318-.652 2.11 2.11 0 0 0-.44-.545 1.683 1.683 0 0 0-.591-.379 2.162 2.162 0 0 0-.818-.137c-.839 0-1.465.319-1.88.955-.404.637-.606 1.486-.606 2.546v1.728c0 1.061.202 1.91.606 2.546.415.637 1.041.955 1.88.955.323 0 .596-.045.818-.136.233-.091.43-.212.591-.364.172-.162.319-.343.44-.546.121-.212.227-.434.318-.666l1.091.5a6.835 6.835 0 0 1-.454.848 3.39 3.39 0 0 1-.637.743 2.904 2.904 0 0 1-.909.531c-.354.131-.773.197-1.258.197Zm5.359-1.213h2.289v-5.759h-2.289v-1.031h3.501v1.971h.076c.161-.617.465-1.097.909-1.44.455-.354 1.031-.531 1.728-.531h1.091v1.213h-1.47c-.697 0-1.263.202-1.697.606-.425.404-.637.935-.637 1.591v3.38h3.031v1.031h-6.532v-1.031Zm12.604 1.213a3.901 3.901 0 0 1-1.531-.288 3.323 3.323 0 0 1-1.152-.819 3.91 3.91 0 0 1-.727-1.288 5.194 5.194 0 0 1-.258-1.682c0-.627.086-1.193.258-1.698a3.93 3.93 0 0 1 .742-1.288 3.13 3.13 0 0 1 1.122-.834 3.665 3.665 0 0 1 1.47-.288c.525 0 1 .096 1.425.288.434.192.803.46 1.106.804.303.333.535.732.697 1.197.162.465.243.975.243 1.531v.576h-5.79v.363c0 .344.056.662.167.955.111.293.268.546.47.758.212.212.464.379.757.5.304.111.637.167 1.001.167.525 0 .98-.121 1.364-.364.384-.242.677-.576.879-1l.894.606c-.232.525-.621.96-1.167 1.303-.536.334-1.192.501-1.97.501Zm-.076-7.184a2.31 2.31 0 0 0-1.667.682 2.421 2.421 0 0 0-.485.758 2.547 2.547 0 0 0-.167.939v.106h4.486v-.166c0-.344-.055-.657-.167-.94a2.033 2.033 0 0 0-.439-.728 1.764 1.764 0 0 0-.682-.485 2.24 2.24 0 0 0-.879-.166Zm11.982 7.002c-.475 0-.813-.122-1.015-.364a1.766 1.766 0 0 1-.379-.909h-.076c-.172.454-.45.813-.833 1.076-.374.252-.879.379-1.516.379-.818 0-1.47-.213-1.955-.637-.485-.424-.728-1.005-.728-1.743 0-.727.263-1.288.788-1.682.536-.394 1.395-.591 2.577-.591h1.667v-.773c0-.576-.162-1.006-.485-1.288-.323-.293-.783-.44-1.379-.44-.525 0-.955.106-1.288.318-.334.202-.601.48-.804.834l-.818-.606c.101-.202.237-.399.409-.591.172-.192.384-.359.637-.501.252-.151.54-.267.864-.348a3.964 3.964 0 0 1 1.076-.137c.919 0 1.647.233 2.182.698.546.464.819 1.111.819 1.94v4.304h1.091v1.061h-.834Zm-3.607-.834c.313 0 .596-.035.849-.106.263-.081.49-.182.682-.303.192-.131.338-.283.439-.455a1.08 1.08 0 0 0 .167-.576v-1.288h-1.667c-.727 0-1.258.101-1.591.303-.334.202-.501.495-.501.879v.318c0 .405.142.713.425.925.293.202.692.303 1.197.303Zm10.118.834c-.596 0-1.035-.167-1.318-.5-.273-.334-.409-.763-.409-1.289v-5.001h-2.607v-1.031h1.94c.262 0 .444-.05.545-.151.111-.111.167-.298.167-.561v-2.046h1.167v2.758h3.562v1.031h-3.562v5.759h3.562v1.031h-3.047Zm8.845.182a3.896 3.896 0 0 1-1.53-.288 3.323 3.323 0 0 1-1.152-.819 3.93 3.93 0 0 1-.728-1.288 5.222 5.222 0 0 1-.257-1.682c0-.627.086-1.193.257-1.698.182-.505.43-.934.743-1.288a3.135 3.135 0 0 1 1.121-.834 3.673 3.673 0 0 1 1.471-.288c.525 0 1 .096 1.424.288.435.192.804.46 1.107.804.303.333.535.732.697 1.197.161.465.242.975.242 1.531v.576h-5.789v.363c0 .344.055.662.166.955.112.293.268.546.47.758.212.212.465.379.758.5a2.89 2.89 0 0 0 1 .167c.526 0 .98-.121 1.364-.364.384-.242.677-.576.879-1l.895.606c-.233.525-.622.96-1.167 1.303-.536.334-1.193.501-1.971.501Zm-.075-7.184a2.31 2.31 0 0 0-1.668.682 2.439 2.439 0 0 0-.485.758 2.547 2.547 0 0 0-.166.939v.106h4.486v-.166c0-.344-.056-.657-.167-.94a2.033 2.033 0 0 0-.439-.728 1.771 1.771 0 0 0-.682-.485 2.24 2.24 0 0 0-.879-.166Zm8.451-.015v-4.199h1.151v4.199h-1.151Zm-130.03 25.986h2.288v-5.759h-2.288v-1.031h3.5v1.971h.077c.161-.617.465-1.097.91-1.44.454-.354 1.03-.531 1.727-.531h1.091v1.213h-1.47c-.697 0-1.263.202-1.698.606-.424.404-.636.935-.636 1.591v3.38h3.031v1.031h-6.532v-1.031Zm12.604 1.213a3.9 3.9 0 0 1-1.531-.288 3.329 3.329 0 0 1-1.152-.819 3.922 3.922 0 0 1-.727-1.288 5.2 5.2 0 0 1-.258-1.682c0-.627.086-1.193.258-1.698.181-.505.429-.934.742-1.288a3.134 3.134 0 0 1 1.122-.834 3.669 3.669 0 0 1 1.47-.288c.525 0 1 .096 1.425.288.434.192.803.46 1.106.804.303.333.535.732.697 1.197.162.465.243.975.243 1.531v.576h-5.79v.363c0 .344.056.662.167.955.11.293.267.546.47.758.212.212.464.379.757.5a2.89 2.89 0 0 0 1 .167c.526 0 .98-.121 1.365-.364a2.35 2.35 0 0 0 .879-1l.894.606c-.233.525-.621.96-1.167 1.303-.536.334-1.192.501-1.97.501Zm-.076-7.184a2.309 2.309 0 0 0-1.667.682 2.426 2.426 0 0 0-.485.758 2.545 2.545 0 0 0-.167.939v.106h4.486v-.166c0-.344-.055-.657-.167-.94a2.034 2.034 0 0 0-.44-.728 1.765 1.765 0 0 0-.681-.485 2.237 2.237 0 0 0-.88-.166Zm9.118 7.184c-.819 0-1.526-.137-2.122-.41a4.75 4.75 0 0 1-1.5-1.121l.818-.713a4.15 4.15 0 0 0 1.228.91c.444.212.98.318 1.606.318.606 0 1.101-.106 1.485-.318.394-.222.591-.566.591-1.031a.94.94 0 0 0-.12-.5.81.81 0 0 0-.304-.333 1.532 1.532 0 0 0-.44-.182 3.726 3.726 0 0 0-.515-.121l-1.227-.182c-.273-.041-.571-.096-.895-.167a3.095 3.095 0 0 1-.864-.333 2.223 2.223 0 0 1-.666-.637c-.172-.263-.258-.606-.258-1.031 0-.394.076-.732.227-1.015.162-.293.384-.536.667-.727a2.804 2.804 0 0 1 1-.44 4.935 4.935 0 0 1 1.258-.152c.708 0 1.319.112 1.834.334.526.222.975.53 1.35.924l-.789.743a2.225 2.225 0 0 0-.349-.333 1.835 1.835 0 0 0-.5-.319 2.805 2.805 0 0 0-.682-.242 4.047 4.047 0 0 0-.909-.091c-.616 0-1.091.106-1.425.318-.323.212-.485.52-.485.925 0 .202.036.373.106.515.081.131.187.237.319.318.131.081.278.147.44.197.171.041.343.076.514.106l1.228.182c.283.041.581.096.894.167.314.071.602.187.864.348.263.152.48.359.652.622.182.263.273.606.273 1.03 0 .778-.303 1.38-.91 1.804-.596.424-1.394.637-2.394.637Zm8.996 0c-.545 0-1.04-.096-1.485-.288a3.215 3.215 0 0 1-1.121-.819 3.862 3.862 0 0 1-.698-1.288 5.554 5.554 0 0 1-.242-1.698c0-.616.08-1.177.242-1.682.162-.505.394-.934.698-1.288a3.134 3.134 0 0 1 1.121-.834c.445-.192.94-.288 1.485-.288a3.6 3.6 0 0 1 1.47.288c.445.192.819.47 1.122.834.313.354.55.783.712 1.288.162.505.243 1.066.243 1.682 0 .627-.081 1.193-.243 1.698-.161.495-.399.924-.712 1.288a3.04 3.04 0 0 1-1.121.819 3.6 3.6 0 0 1-1.47.288Zm0-1.046c.677 0 1.223-.202 1.637-.606.414-.405.622-1.031.622-1.88v-1.121c0-.849-.208-1.475-.622-1.88-.414-.404-.96-.606-1.637-.606s-1.222.202-1.637.606c-.414.405-.62 1.031-.62 1.88v1.121c0 .849.206 1.475.62 1.88.415.404.96.606 1.637.606Zm10.937-.409h-.06c-.082.192-.183.378-.304.56a1.93 1.93 0 0 1-.454.455 2.126 2.126 0 0 1-.622.318 2.68 2.68 0 0 1-.849.122c-.818 0-1.475-.258-1.97-.773-.495-.526-.743-1.263-.743-2.213v-5.017h1.213v4.805c0 .717.157 1.253.47 1.606.313.344.773.515 1.379.515.242 0 .48-.03.712-.09.233-.061.44-.152.622-.273.182-.121.328-.273.44-.455.11-.192.166-.419.166-.682v-5.426h1.212v7.821h-1.212v-1.273Zm3.859.242h2.288v-5.759H94.69v-1.031h3.5v1.971h.076c.162-.617.465-1.097.91-1.44.454-.354 1.03-.531 1.728-.531h1.091v1.213h-1.47c-.697 0-1.263.202-1.698.606-.424.404-.636.935-.636 1.591v3.38h3.031v1.031H94.69v-1.031Zm12.74 1.213c-.566 0-1.071-.096-1.516-.288a3.232 3.232 0 0 1-1.106-.834 3.667 3.667 0 0 1-.697-1.288 5.826 5.826 0 0 1-.228-1.683c0-.616.081-1.177.243-1.682.162-.505.394-.934.697-1.288a2.999 2.999 0 0 1 1.106-.834c.435-.192.93-.288 1.486-.288.757 0 1.374.167 1.849.501.475.333.823.767 1.045 1.303l-.97.515a1.804 1.804 0 0 0-.712-.939c-.323-.223-.727-.334-1.212-.334-.354 0-.672.061-.955.182a1.885 1.885 0 0 0-.697.485 2.167 2.167 0 0 0-.44.758 3.204 3.204 0 0 0-.136.955v1.333c0 .344.045.662.136.955.101.293.248.546.44.758.192.212.429.379.712.5.283.111.606.167.97.167.525 0 .96-.121 1.303-.364.344-.242.617-.576.819-1l.864.591c-.233.525-.596.96-1.092 1.303-.484.344-1.121.516-1.909.516Zm8.951 0a3.901 3.901 0 0 1-1.531-.288 3.342 3.342 0 0 1-1.152-.819 3.929 3.929 0 0 1-.727-1.288 5.194 5.194 0 0 1-.258-1.682c0-.627.086-1.193.258-1.698.182-.505.429-.934.743-1.288a3.135 3.135 0 0 1 1.121-.834 3.672 3.672 0 0 1 1.47-.288c.526 0 1.001.096 1.425.288.434.192.803.46 1.106.804.303.333.536.732.697 1.197.162.465.243.975.243 1.531v.576h-5.79v.363c0 .344.056.662.167.955.111.293.268.546.47.758.212.212.465.379.758.5.303.111.636.167 1 .167.525 0 .98-.121 1.364-.364.384-.242.677-.576.879-1l.894.606c-.232.525-.621.96-1.167 1.303-.535.334-1.192.501-1.97.501Zm-.076-7.184a2.309 2.309 0 0 0-1.667.682 2.421 2.421 0 0 0-.485.758 2.547 2.547 0 0 0-.167.939v.106h4.487v-.166c0-.344-.056-.657-.167-.94a2.035 2.035 0 0 0-.44-.728 1.764 1.764 0 0 0-.682-.485 2.232 2.232 0 0 0-.879-.166Zm17.539-.015v-4.199h1.152v4.199h-1.152Zm6.481 7.017v-10.579h6.668v1.106h-5.395v3.562h4.94v1.106h-4.94v4.805h-1.273Zm12.27.182a3.704 3.704 0 0 1-1.485-.288 3.21 3.21 0 0 1-1.122-.819 3.869 3.869 0 0 1-.697-1.288 5.544 5.544 0 0 1-.243-1.698c0-.616.081-1.177.243-1.682.162-.505.394-.934.697-1.288a3.13 3.13 0 0 1 1.122-.834 3.704 3.704 0 0 1 1.485-.288c.545 0 1.035.096 1.47.288.445.192.818.47 1.121.834.314.354.551.783.713 1.288a5.52 5.52 0 0 1 .242 1.682c0 .627-.081 1.193-.242 1.698a3.713 3.713 0 0 1-.713 1.288 3.034 3.034 0 0 1-1.121.819 3.604 3.604 0 0 1-1.47.288Zm0-1.046c.677 0 1.222-.202 1.637-.606.414-.405.621-1.031.621-1.88v-1.121c0-.849-.207-1.475-.621-1.88-.415-.404-.96-.606-1.637-.606s-1.223.202-1.637.606c-.414.405-.621 1.031-.621 1.88v1.121c0 .849.207 1.475.621 1.88.414.404.96.606 1.637.606Zm5.753-.167h2.728v-9.154h-2.728v-1.031h3.941v10.185h2.728v1.031h-6.669v-1.031Zm14.316-.242h-.06c-.505.97-1.309 1.455-2.41 1.455-.96 0-1.713-.359-2.258-1.077-.536-.717-.803-1.722-.803-3.016 0-1.293.267-2.298.803-3.016.545-.717 1.298-1.076 2.258-1.076 1.101 0 1.905.485 2.41 1.455h.06v-4.668h1.213v11.216h-1.213v-1.273Zm-2 .378c.273 0 .53-.035.773-.106.242-.07.455-.171.636-.303.182-.141.324-.308.425-.5.111-.202.166-.434.166-.697v-2.819c0-.263-.055-.49-.166-.682a1.353 1.353 0 0 0-.425-.5 1.855 1.855 0 0 0-.636-.318 2.74 2.74 0 0 0-.773-.107c-.707 0-1.258.218-1.652.652-.384.425-.576.99-.576 1.698v1.333c0 .708.192 1.278.576 1.713.394.424.945.636 1.652.636Zm9.33 1.077a3.901 3.901 0 0 1-1.531-.288 3.342 3.342 0 0 1-1.152-.819 3.929 3.929 0 0 1-.727-1.288 5.194 5.194 0 0 1-.258-1.682c0-.627.086-1.193.258-1.698.182-.505.429-.934.743-1.288a3.135 3.135 0 0 1 1.121-.834 3.672 3.672 0 0 1 1.47-.288c.526 0 1 .096 1.425.288.434.192.803.46 1.106.804.303.333.536.732.697 1.197.162.465.243.975.243 1.531v.576h-5.79v.363c0 .344.056.662.167.955.111.293.268.546.47.758.212.212.465.379.758.5.303.111.636.167 1 .167.525 0 .98-.121 1.364-.364.384-.242.677-.576.879-1l.894.606c-.232.525-.621.96-1.167 1.303-.535.334-1.192.501-1.97.501Zm-.076-7.184a2.309 2.309 0 0 0-1.667.682 2.421 2.421 0 0 0-.485.758 2.547 2.547 0 0 0-.167.939v.106h4.486v-.166c0-.344-.055-.657-.166-.94a2.035 2.035 0 0 0-.44-.728 1.764 1.764 0 0 0-.682-.485 2.24 2.24 0 0 0-.879-.166Zm5.647 5.971h2.289v-5.759h-2.289v-1.031h3.501v1.971h.076c.162-.617.465-1.097.909-1.44.455-.354 1.031-.531 1.728-.531h1.091v1.213h-1.47c-.697 0-1.263.202-1.697.606-.424.404-.637.935-.637 1.591v3.38h3.032v1.031h-6.533v-1.031Zm11.892-5.986v-4.199h1.152v4.199h-1.152ZM25.081 429.911c.424 0 .743.122.955.364.212.232.318.525.318.879v.955c0 .273-.03.515-.09.727-.051.202-.117.384-.198.546-.08.152-.172.293-.273.424l-.288.349a2.504 2.504 0 0 0-.363.53c-.061.142-.091.293-.091.455 0 .384.177.667.53.849.354.172.874.257 1.561.257h1.182v.94h-1.182c-.687 0-1.207.091-1.56.273-.354.172-.531.449-.531.833 0 .162.03.319.09.47.071.142.193.313.364.516.091.111.187.232.288.363.101.122.192.263.273.425.081.161.147.343.197.545.06.202.091.44.091.713v.954c0 .354-.106.647-.318.879-.212.243-.53.364-.955.364h-2.667v-.939h2.894v-1.167c0-.415-.06-.733-.181-.955a5.067 5.067 0 0 0-.425-.652c-.172-.222-.333-.45-.485-.682a1.566 1.566 0 0 1-.227-.849c0-.424.146-.768.44-1.03.303-.263.712-.43 1.227-.5v-.061c-.515-.071-.924-.238-1.228-.5-.293-.263-.44-.606-.44-1.031 0-.323.077-.601.228-.833a8.58 8.58 0 0 1 .485-.698c.162-.212.303-.429.424-.651.122-.223.182-.541.182-.955v-1.167h-2.894v-.94h2.667Z" fill="#F9F9F8"/><path d="M132.98 356.716c0-.737.081-1.445.242-2.122.172-.687.4-1.323.682-1.909a8.243 8.243 0 0 1 1.016-1.576 7.16 7.16 0 0 1 1.212-1.198h1.228a8.53 8.53 0 0 0-1.258 1.167 8.923 8.923 0 0 0-1.031 1.44 7.562 7.562 0 0 0-.697 1.682 6.731 6.731 0 0 0-.257 1.865v1.303c0 .647.086 1.273.257 1.879.172.596.404 1.157.697 1.683.304.515.647.99 1.031 1.424.394.445.813.834 1.258 1.167h-1.228a6.657 6.657 0 0 1-1.212-1.182 8.729 8.729 0 0 1-1.016-1.591 10.088 10.088 0 0 1-.682-1.895 9.334 9.334 0 0 1-.242-2.137Zm-43.998 24.85c-.414 0-.707-.086-.88-.258a.911.911 0 0 1-.242-.651v-.273c0-.263.081-.48.243-.652.172-.172.465-.257.879-.257s.702.085.864.257a.884.884 0 0 1 .257.652v.273c0 .262-.085.48-.257.651-.162.172-.45.258-.864.258Zm0-6.002c-.414 0-.707-.085-.88-.257a.914.914 0 0 1-.242-.652v-.273c0-.262.081-.48.243-.651.172-.172.465-.258.879-.258s.702.086.864.258a.881.881 0 0 1 .257.651v.273c0 .263-.085.48-.257.652-.162.172-.45.257-.864.257Zm217.45 3.804h1.955l-1.743 4.199h-1.016l.804-4.199Zm-199.275 22.198c-.414 0-.707-.086-.879-.258a.91.91 0 0 1-.242-.651v-.273c0-.263.08-.48.242-.652.172-.172.465-.257.879-.257s.702.085.864.257a.883.883 0 0 1 .258.652v.273a.88.88 0 0 1-.258.651c-.162.172-.45.258-.864.258Zm0-6.002c-.414 0-.707-.085-.879-.257a.912.912 0 0 1-.242-.652v-.273c0-.262.08-.48.242-.651.172-.172.465-.258.879-.258s.702.086.864.258a.88.88 0 0 1 .258.651v.273c0 .263-.086.48-.258.652-.162.172-.45.257-.864.257Zm81.136 3.804h1.956l-1.743 4.199h-1.016l.803-4.199Zm-62.961 22.198c-.414 0-.707-.086-.879-.258a.91.91 0 0 1-.242-.651v-.273c0-.263.08-.48.242-.652.172-.172.465-.257.879-.257s.702.085.864.257a.883.883 0 0 1 .258.652v.273a.88.88 0 0 1-.258.651c-.162.172-.45.258-.864.258Zm0-6.002c-.414 0-.707-.085-.879-.257a.912.912 0 0 1-.242-.652v-.273c0-.262.08-.48.242-.651.172-.172.465-.258.879-.258s.702.086.864.258a.88.88 0 0 1 .258.651v.273c0 .263-.086.48-.258.652-.162.172-.45.257-.864.257Zm81.137 3.804h1.955l-1.743 4.199h-1.016l.804-4.199ZM35.896 436.716c0 .738-.086 1.45-.257 2.137a8.78 8.78 0 0 1-.682 1.895 8.163 8.163 0 0 1-1 1.591 6.645 6.645 0 0 1-1.213 1.182h-1.228a8.875 8.875 0 0 0 1.243-1.167 7.984 7.984 0 0 0 1.743-3.107 6.854 6.854 0 0 0 .258-1.879v-1.303c0-.647-.086-1.269-.258-1.865a7.135 7.135 0 0 0-.712-1.682 7.79 7.79 0 0 0-1.03-1.44 8.994 8.994 0 0 0-1.244-1.167h1.228c.424.324.828.723 1.212 1.198.384.464.718.99 1 1.576.294.586.521 1.222.683 1.909a8.6 8.6 0 0 1 .257 2.122Zm6.996 2.652h1.955l-1.742 4.199h-1.016l.803-4.199Zm.652-3.804c-.414 0-.707-.085-.879-.257a.914.914 0 0 1-.242-.652v-.273c0-.262.08-.48.242-.651.172-.172.465-.258.88-.258.413 0 .701.086.863.258a.881.881 0 0 1 .258.651v.273c0 .263-.086.48-.258.652-.162.172-.45.257-.864.257Z" fill="#E3E3E0"/><rect x="13.782" y="338.388" width="305.081" height="114.081" rx="11.487" stroke="#fff" stroke-opacity=".3" stroke-width=".741"/><rect x="6.371" y="330.976" width="319.903" height="128.903" rx="14.452" stroke="#fff" stroke-opacity=".2" stroke-width=".741"/><g filter="url(#k)"><path d="M31.445 511.986c8.837 0 16-7.163 16-16 0-8.836-7.163-16-16-16-8.836 0-16 7.164-16 16 0 8.837 7.164 16 16 16Z" fill="#974EF2"/><path d="M46.445 495.986c0 8.285-6.715 15-15 15-8.284 0-15-6.715-15-15 0-8.284 6.716-15 15-15 8.285 0 15 6.716 15 15Z" stroke="#fff" stroke-opacity=".2" stroke-width="2"/></g><mask id="l" style="mask-type:alpha" maskUnits="userSpaceOnUse" x="22" y="486" width="19" height="20"><path fill="#D9D9D9" d="M22.105 486.646h18.681v18.681H22.105z"/></mask><g mask="url(#l)"><path d="m27.339 501.902-5.02-5.021 1.712-1.712 5.02 5.02-1.712 1.713Zm4.378-.623-5.06-5.059 1.752-1.713 3.308 3.308 7.122-7.122 1.752 1.713-8.874 8.873Zm0-5.04-1.712-1.712 3.853-3.853 1.712 1.712-3.853 3.853Z" fill="#fff"/></g><g filter="url(#m)"><path d="M58.425 500.986v-10.08h6.51v1.582h-4.823v2.485h3.983v1.582h-3.983v2.849h4.823v1.582h-6.51Zm13.419 0v-3.64c0-.238-.017-.501-.05-.791a2.739 2.739 0 0 0-.23-.833 1.586 1.586 0 0 0-.532-.665c-.234-.172-.55-.259-.952-.259-.215 0-.427.035-.637.105a1.47 1.47 0 0 0-.574.364c-.168.168-.304.402-.406.7-.103.294-.154.672-.154 1.134l-1.001-.427c0-.644.123-1.227.37-1.75.253-.522.621-.938 1.107-1.246.485-.312 1.082-.469 1.792-.469.56 0 1.022.094 1.386.28.364.187.653.425.868.714.214.29.373.598.476.924.102.327.168.637.196.931.032.29.049.525.049.707v4.221h-1.708Zm-5.243 0v-7.56h1.505v2.345h.203v5.215H66.6Zm9.435 0v-7.679c0-.191.007-.401.021-.63.014-.233.054-.464.12-.693.065-.228.184-.436.356-.623.215-.238.446-.401.693-.49.252-.093.5-.144.742-.154.243-.014.455-.021.637-.021h.945v1.372h-.875c-.322 0-.562.082-.72.245-.155.159-.232.369-.232.63v8.043h-1.687Zm-1.218-6.237v-1.323h4.732v1.323h-4.732Zm8.917 6.447c-.756 0-1.416-.17-1.981-.511a3.501 3.501 0 0 1-1.316-1.407c-.308-.602-.462-1.292-.462-2.072 0-.793.159-1.488.476-2.086a3.511 3.511 0 0 1 1.323-1.4c.565-.336 1.218-.504 1.96-.504.76 0 1.423.171 1.988.511a3.5 3.5 0 0 1 1.316 1.414c.313.598.469 1.286.469 2.065 0 .784-.159 1.477-.476 2.079a3.501 3.501 0 0 1-1.316 1.407c-.565.336-1.225.504-1.981.504Zm0-1.582c.672 0 1.171-.224 1.498-.672.327-.448.49-1.026.49-1.736 0-.732-.166-1.316-.497-1.75-.331-.438-.828-.658-1.491-.658-.453 0-.826.103-1.12.308-.29.201-.504.483-.644.847-.14.36-.21.777-.21 1.253 0 .733.166 1.319.497 1.757.336.434.828.651 1.477.651Zm5.315 1.372v-7.56h1.491v1.841l-.182-.238c.094-.252.217-.48.371-.686.159-.21.348-.382.567-.518.187-.126.392-.224.616-.294a2.8 2.8 0 0 1 .7-.133c.238-.018.47-.009.693.028v1.575a2.18 2.18 0 0 0-.777-.063c-.289.024-.55.105-.784.245a1.762 1.762 0 0 0-.574.483c-.144.196-.252.42-.322.672-.07.248-.105.516-.105.805v3.843H89.05Zm8.738.21c-.779 0-1.444-.172-1.995-.518a3.449 3.449 0 0 1-1.267-1.428c-.289-.602-.436-1.283-.44-2.044.004-.774.156-1.46.454-2.058a3.436 3.436 0 0 1 1.288-1.414c.556-.345 1.216-.518 1.981-.518.86 0 1.585.217 2.177.651.598.43.987 1.018 1.169 1.764l-1.68.455c-.13-.406-.347-.721-.65-.945a1.68 1.68 0 0 0-1.037-.343c-.438 0-.8.105-1.085.315-.284.206-.494.49-.63.854a3.539 3.539 0 0 0-.203 1.239c0 .719.161 1.3.483 1.743.322.444.8.665 1.435.665.448 0 .8-.102 1.057-.308.262-.205.458-.501.588-.889l1.722.385c-.233.77-.641 1.363-1.225 1.778-.583.411-1.297.616-2.142.616Zm8.002 0c-.765 0-1.437-.165-2.016-.497a3.537 3.537 0 0 1-1.358-1.379c-.322-.588-.483-1.264-.483-2.03 0-.826.159-1.542.476-2.149a3.475 3.475 0 0 1 1.323-1.421c.565-.336 1.218-.504 1.96-.504.784 0 1.449.185 1.995.553.551.364.959.88 1.225 1.547.266.668.366 1.454.301 2.359h-1.673v-.616c-.005-.821-.149-1.421-.434-1.799-.285-.378-.733-.567-1.344-.567-.691 0-1.204.215-1.54.644-.336.425-.504 1.048-.504 1.869 0 .766.168 1.358.504 1.778.336.42.826.63 1.47.63.415 0 .772-.091 1.071-.273.303-.186.537-.455.7-.805l1.666.504a3.37 3.37 0 0 1-1.344 1.589 3.677 3.677 0 0 1-1.995.567Zm-2.604-3.521v-1.274h5.201v1.274h-5.201Zm12.506 3.521c-.546 0-1.008-.102-1.386-.308a2.174 2.174 0 0 1-.861-.833 2.305 2.305 0 0 1-.287-1.141c0-.364.06-.69.182-.98a1.93 1.93 0 0 1 .56-.756c.252-.214.578-.389.98-.525a9.414 9.414 0 0 1 1.064-.266c.41-.079.854-.151 1.33-.217.48-.07.982-.144 1.505-.224l-.602.343c.004-.522-.112-.907-.35-1.155-.238-.247-.64-.371-1.204-.371-.341 0-.67.08-.987.238-.318.159-.539.432-.665.819l-1.54-.483a2.86 2.86 0 0 1 1.064-1.54c.527-.387 1.236-.581 2.128-.581.672 0 1.262.11 1.771.329.513.22.893.579 1.141 1.078.135.266.217.539.245.819.028.276.042.577.042.903v4.641h-1.477v-1.638l.245.266c-.341.546-.74.948-1.197 1.204-.453.252-1.02.378-1.701.378Zm.336-1.344c.382 0 .709-.067.98-.203.27-.135.485-.301.644-.497.163-.196.273-.38.329-.553.088-.214.137-.459.147-.735.014-.28.021-.506.021-.679l.518.154c-.509.08-.945.15-1.309.21-.364.061-.677.119-.938.175-.262.052-.493.11-.693.175-.196.07-.362.152-.497.245a1.08 1.08 0 0 0-.315.322.842.842 0 0 0-.105.427c0 .187.046.353.14.497.093.14.228.252.406.336a1.6 1.6 0 0 0 .672.126Zm8.899 1.344c-.779 0-1.444-.172-1.995-.518a3.447 3.447 0 0 1-1.267-1.428c-.289-.602-.436-1.283-.441-2.044.005-.774.156-1.46.455-2.058a3.436 3.436 0 0 1 1.288-1.414c.555-.345 1.216-.518 1.981-.518.859 0 1.584.217 2.177.651.597.43.987 1.018 1.169 1.764l-1.68.455c-.131-.406-.348-.721-.651-.945a1.68 1.68 0 0 0-1.036-.343c-.439 0-.8.105-1.085.315a1.79 1.79 0 0 0-.63.854 3.546 3.546 0 0 0-.203 1.239c0 .719.161 1.3.483 1.743.322.444.8.665 1.435.665.448 0 .8-.102 1.057-.308.261-.205.457-.501.588-.889l1.722.385c-.233.77-.642 1.363-1.225 1.778-.583.411-1.297.616-2.142.616Zm7.848 0c-.78 0-1.445-.172-1.995-.518a3.447 3.447 0 0 1-1.267-1.428c-.29-.602-.437-1.283-.441-2.044.004-.774.156-1.46.455-2.058a3.429 3.429 0 0 1 1.288-1.414c.555-.345 1.215-.518 1.981-.518.858 0 1.584.217 2.177.651.597.43.987 1.018 1.169 1.764l-1.68.455c-.131-.406-.348-.721-.651-.945a1.682 1.682 0 0 0-1.036-.343c-.439 0-.801.105-1.085.315a1.79 1.79 0 0 0-.63.854 3.523 3.523 0 0 0-.203 1.239c0 .719.161 1.3.483 1.743.322.444.8.665 1.435.665.448 0 .8-.102 1.057-.308.261-.205.457-.501.588-.889l1.722.385c-.234.77-.642 1.363-1.225 1.778-.584.411-1.298.616-2.142.616Zm8.001 0c-.765 0-1.437-.165-2.016-.497a3.544 3.544 0 0 1-1.358-1.379c-.322-.588-.483-1.264-.483-2.03 0-.826.159-1.542.476-2.149a3.488 3.488 0 0 1 1.323-1.421c.565-.336 1.218-.504 1.96-.504.784 0 1.449.185 1.995.553.551.364.959.88 1.225 1.547.266.668.367 1.454.301 2.359h-1.673v-.616c-.004-.821-.149-1.421-.434-1.799-.284-.378-.732-.567-1.344-.567-.69 0-1.204.215-1.54.644-.336.425-.504 1.048-.504 1.869 0 .766.168 1.358.504 1.778.336.42.826.63 1.47.63.416 0 .773-.091 1.071-.273.304-.186.537-.455.7-.805l1.666.504a3.37 3.37 0 0 1-1.344 1.589 3.677 3.677 0 0 1-1.995.567Zm-2.604-3.521v-1.274h5.201v1.274h-5.201Zm10.508 3.521c-.933 0-1.691-.21-2.275-.63-.583-.42-.938-1.01-1.064-1.771l1.722-.266c.089.374.285.668.588.882.304.215.686.322 1.148.322.406 0 .719-.079.938-.238a.78.78 0 0 0 .336-.665.634.634 0 0 0-.126-.413c-.079-.107-.256-.21-.532-.308a17.11 17.11 0 0 0-1.267-.371c-.634-.168-1.138-.347-1.512-.539-.373-.196-.641-.427-.805-.693-.163-.266-.245-.588-.245-.966 0-.471.124-.882.371-1.232.248-.35.593-.618 1.036-.805.444-.191.966-.287 1.568-.287.588 0 1.109.091 1.561.273.458.182.826.441 1.106.777.28.336.453.731.518 1.183l-1.722.308a1.085 1.085 0 0 0-.441-.763c-.247-.186-.578-.291-.994-.315-.396-.023-.716.038-.959.182-.242.14-.364.339-.364.595 0 .145.049.269.147.371.098.103.294.206.588.308.299.103.742.229 1.33.378.602.154 1.083.332 1.442.532.364.196.626.432.784.707.164.276.245.609.245 1.001 0 .761-.277 1.358-.833 1.792-.55.434-1.313.651-2.289.651Zm7.574 0c-.933 0-1.691-.21-2.275-.63-.583-.42-.938-1.01-1.064-1.771l1.722-.266c.089.374.285.668.588.882.304.215.686.322 1.148.322.406 0 .719-.079.938-.238a.78.78 0 0 0 .336-.665.634.634 0 0 0-.126-.413c-.079-.107-.256-.21-.532-.308a17.11 17.11 0 0 0-1.267-.371c-.634-.168-1.138-.347-1.512-.539-.373-.196-.641-.427-.805-.693-.163-.266-.245-.588-.245-.966 0-.471.124-.882.371-1.232.248-.35.593-.618 1.036-.805.444-.191.966-.287 1.568-.287.588 0 1.109.091 1.561.273.458.182.826.441 1.106.777.28.336.453.731.518 1.183l-1.722.308a1.085 1.085 0 0 0-.441-.763c-.247-.186-.578-.291-.994-.315-.396-.023-.716.038-.959.182-.242.14-.364.339-.364.595 0 .145.049.269.147.371.098.103.294.206.588.308.299.103.742.229 1.33.378.602.154 1.083.332 1.442.532.364.196.626.432.784.707.164.276.245.609.245 1.001 0 .761-.277 1.358-.833 1.792-.55.434-1.313.651-2.289.651Z" fill="#EDEDEC"/></g><defs><filter id="a" x="37.789" y="31.979" width="115.624" height="104.062" filterUnits="userSpaceOnUse" color-interpolation-filters="sRGB"><feFlood flood-opacity="0" result="BackgroundImageFix"/><feGaussianBlur in="BackgroundImageFix" stdDeviation="1.445"/><feComposite in2="SourceAlpha" operator="in" result="effect1_backgroundBlur_5735_14934"/><feColorMatrix in="SourceAlpha" values="0 0 0 0 0 0 0 0 0 0 0 0 0 0 0 0 0 0 127 0" result="hardAlpha"/><feOffset/><feGaussianBlur stdDeviation="5.781"/><feComposite in2="hardAlpha" operator="out"/><feColorMatrix values="0 0 0 0 0 0 0 0 0 0 0 0 0 0 0 0 0 0 0.1 0"/><feBlend in2="effect1_backgroundBlur_5735_14934" result="effect2_dropShadow_5735_14934"/><feBlend in="SourceGraphic" in2="effect2_dropShadow_5735_14934" result="shape"/></filter><filter id="b" x="19.001" y="18.557" width="115.624" height="104.062" filterUnits="userSpaceOnUse" color-interpolation-filters="sRGB"><feFlood flood-opacity="0" result="BackgroundImageFix"/><feGaussianBlur in="BackgroundImageFix" stdDeviation="1.445"/><feComposite in2="SourceAlpha" operator="in" result="effect1_backgroundBlur_5735_14934"/><feColorMatrix in="SourceAlpha" values="0 0 0 0 0 0 0 0 0 0 0 0 0 0 0 0 0 0 127 0" result="hardAlpha"/><feOffset/><feGaussianBlur stdDeviation="5.781"/><feComposite in2="hardAlpha" operator="out"/><feColorMatrix values="0 0 0 0 0 0 0 0 0 0 0 0 0 0 0 0 0 0 0.1 0"/><feBlend in2="effect1_backgroundBlur_5735_14934" result="effect2_dropShadow_5735_14934"/><feBlend in="SourceGraphic" in2="effect2_dropShadow_5735_14934" result="shape"/></filter><filter id="c" x="-17.117" y="-16.906" width="150.311" height="138.75" filterUnits="userSpaceOnUse" color-interpolation-filters="sRGB"><feFlood flood-opacity="0" result="BackgroundImageFix"/><feGaussianBlur in="BackgroundImageFix" stdDeviation="14.453"/><feComposite in2="SourceAlpha" operator="in" result="effect1_backgroundBlur_5735_14934"/><feColorMatrix in="SourceAlpha" values="0 0 0 0 0 0 0 0 0 0 0 0 0 0 0 0 0 0 127 0" result="hardAlpha"/><feOffset/><feGaussianBlur stdDeviation="5.781"/><feComposite in2="hardAlpha" operator="out"/><feColorMatrix values="0 0 0 0 0 0 0 0 0 0 0 0 0 0 0 0 0 0 0.1 0"/><feBlend in2="effect1_backgroundBlur_5735_14934" result="effect2_dropShadow_5735_14934"/><feBlend in="SourceGraphic" in2="effect2_dropShadow_5735_14934" result="shape"/></filter><filter id="d" x="191.878" y="170.188" width="123.957" height="123.957" filterUnits="userSpaceOnUse" color-interpolation-filters="sRGB"><feFlood flood-opacity="0" result="BackgroundImageFix"/><feGaussianBlur in="BackgroundImageFix" stdDeviation="1.549"/><feComposite in2="SourceAlpha" operator="in" result="effect1_backgroundBlur_5735_14934"/><feColorMatrix in="SourceAlpha" values="0 0 0 0 0 0 0 0 0 0 0 0 0 0 0 0 0 0 127 0" result="hardAlpha"/><feOffset/><feGaussianBlur stdDeviation="6.198"/><feComposite in2="hardAlpha" operator="out"/><feColorMatrix values="0 0 0 0 0 0 0 0 0 0 0 0 0 0 0 0 0 0 0.1 0"/><feBlend in2="effect1_backgroundBlur_5735_14934" result="effect2_dropShadow_5735_14934"/><feBlend in="SourceGraphic" in2="effect2_dropShadow_5735_14934" result="shape"/></filter><filter id="e" x="196.72" y="174.062" width="114.274" height="128.053" filterUnits="userSpaceOnUse" color-interpolation-filters="sRGB"><feFlood flood-opacity="0" result="BackgroundImageFix"/><feGaussianBlur in="BackgroundImageFix" stdDeviation="15.495"/><feComposite in2="SourceAlpha" operator="in" result="effect1_backgroundBlur_5735_14934"/><feColorMatrix in="SourceAlpha" values="0 0 0 0 0 0 0 0 0 0 0 0 0 0 0 0 0 0 127 0" result="hardAlpha"/><feOffset/><feGaussianBlur stdDeviation="6.198"/><feComposite in2="hardAlpha" operator="out"/><feColorMatrix values="0 0 0 0 0 0 0 0 0 0 0 0 0 0 0 0 0 0 0.1 0"/><feBlend in2="effect1_backgroundBlur_5735_14934" result="effect2_dropShadow_5735_14934"/><feBlend in="SourceGraphic" in2="effect2_dropShadow_5735_14934" result="shape"/></filter><filter id="f" x="119.189" y="223.371" width="154.207" height="99.334" filterUnits="userSpaceOnUse" color-interpolation-filters="sRGB"><feFlood flood-opacity="0" result="BackgroundImageFix"/><feGaussianBlur in="BackgroundImageFix" stdDeviation="6.825"/><feComposite in2="SourceAlpha" operator="in" result="effect1_backgroundBlur_5735_14934"/><feColorMatrix in="SourceAlpha" values="0 0 0 0 0 0 0 0 0 0 0 0 0 0 0 0 0 0 127 0" result="hardAlpha"/><feOffset/><feGaussianBlur stdDeviation="17.061"/><feComposite in2="hardAlpha" operator="out"/><feColorMatrix values="0 0 0 0 0 0 0 0 0 0 0 0 0 0 0 0 0 0 0.25 0"/><feBlend in2="effect1_backgroundBlur_5735_14934" result="effect2_dropShadow_5735_14934"/><feBlend in="SourceGraphic" in2="effect2_dropShadow_5735_14934" result="shape"/></filter><filter id="k" x="5.445" y="469.986" width="52" height="52" filterUnits="userSpaceOnUse" color-interpolation-filters="sRGB"><feFlood flood-opacity="0" result="BackgroundImageFix"/><feColorMatrix in="SourceAlpha" values="0 0 0 0 0 0 0 0 0 0 0 0 0 0 0 0 0 0 127 0" result="hardAlpha"/><feOffset/><feGaussianBlur stdDeviation="5"/><feComposite in2="hardAlpha" operator="out"/><feColorMatrix values="0 0 0 0 1 0 0 0 0 1 0 0 0 0 1 0 0 0 0.25 0"/><feBlend in2="BackgroundImageFix" result="effect1_dropShadow_5735_14934"/><feBlend in="SourceGraphic" in2="effect1_dropShadow_5735_14934" result="shape"/></filter><filter id="m" x="54.426" y="486.697" width="108.951" height="18.5" filterUnits="userSpaceOnUse" color-interpolation-filters="sRGB"><feFlood flood-opacity="0" result="BackgroundImageFix"/><feColorMatrix in="SourceAlpha" values="0 0 0 0 0 0 0 0 0 0 0 0 0 0 0 0 0 0 127 0" result="hardAlpha"/><feOffset/><feGaussianBlur stdDeviation="2"/><feComposite in2="hardAlpha" operator="out"/><feColorMatrix values="0 0 0 0 1 0 0 0 0 1 0 0 0 0 1 0 0 0 0.25 0"/><feBlend in2="BackgroundImageFix" result="effect1_dropShadow_5735_14934"/><feBlend in="SourceGraphic" in2="effect1_dropShadow_5735_14934" result="shape"/></filter></defs></svg>